<?xml version='1.0' encoding='UTF-8'?>
<svg xmlns:ns1="http://www.serif.com/" xmlns="http://www.w3.org/2000/svg" height="128.5mm"
     style="fill-rule:evenodd;clip-rule:evenodd;stroke-linejoin:round;stroke-miterlimit:2;" version="1.1"
     viewBox="0 0 144.000 364.252" width="50.8mm" xml:space="preserve">
    <g id="Layer-1" ns1:id="Layer 1">
        <rect height="364.252" id="rect517" style="fill:white;" width="144" x="0" y="0"/>
        <rect height="65.966" id="rect1442" width="57" x="81.082" y="286.449"/>
        <g transform="matrix(1,0,0,1,7.42229,303.454)">
            <g id="text83">
                <g transform="matrix(14,0,0,14,0,0)">
                    <path d="M0.093,-0L0.093,-0.723L0.497,-0.723L0.497,-0.646L0.196,-0.646L0.196,-0.414L0.448,-0.414L0.448,-0.338L0.196,-0.338L0.196,-0.077L0.518,-0.077L0.518,-0L0.093,-0Z"
                          style="fill-rule:nonzero;"/>
                </g>
                <g transform="matrix(14,0,0,14,7.58789,0)">
                    <path d="M0.043,-0L0.245,-0.274L0.049,-0.53L0.163,-0.53L0.318,-0.326L0.458,-0.53L0.552,-0.53L0.368,-0.261L0.568,-0L0.454,-0L0.294,-0.21L0.14,-0L0.043,-0Z"
                          style="fill-rule:nonzero;"/>
                </g>
                <g transform="matrix(14,0,0,14,16.1738,0)">
                    <path d="M0.255,0.012C0.207,0.012 0.168,-0.002 0.141,-0.03C0.114,-0.058 0.1,-0.097 0.1,-0.146L0.1,-0.458L0.034,-0.458L0.034,-0.53L0.1,-0.53L0.1,-0.626L0.196,-0.636L0.196,-0.53L0.335,-0.53L0.335,-0.458L0.196,-0.458L0.196,-0.164C0.196,-0.095 0.226,-0.06 0.286,-0.06C0.299,-0.06 0.314,-0.062 0.333,-0.066L0.333,-0C0.303,0.008 0.277,0.012 0.255,0.012Z"
                          style="fill-rule:nonzero;"/>
                </g>
                <g transform="matrix(14,0,0,14,25.8398,0)">
                    <path d="M0.636,-0.02C0.549,0.006 0.472,0.018 0.407,0.018C0.292,0.018 0.204,-0.015 0.143,-0.08C0.081,-0.146 0.051,-0.239 0.051,-0.361C0.051,-0.481 0.082,-0.574 0.144,-0.641C0.206,-0.707 0.293,-0.741 0.406,-0.741C0.479,-0.741 0.556,-0.73 0.635,-0.708L0.635,-0.613C0.536,-0.647 0.459,-0.664 0.406,-0.664C0.328,-0.664 0.267,-0.638 0.224,-0.584C0.181,-0.531 0.16,-0.457 0.16,-0.36C0.16,-0.265 0.183,-0.191 0.229,-0.138C0.275,-0.085 0.34,-0.059 0.423,-0.059C0.458,-0.059 0.494,-0.065 0.534,-0.077L0.534,-0.312L0.636,-0.312L0.636,-0.02Z"
                          style="fill-rule:nonzero;"/>
                </g>
                <g transform="matrix(14,0,0,14,35.957,0)">
                    <path d="M0.37,-0.067C0.312,-0.014 0.257,0.012 0.203,0.012C0.159,0.012 0.123,-0.002 0.094,-0.029C0.065,-0.057 0.05,-0.091 0.05,-0.133C0.05,-0.191 0.075,-0.236 0.123,-0.267C0.172,-0.298 0.242,-0.313 0.333,-0.313L0.355,-0.313L0.355,-0.377C0.355,-0.439 0.324,-0.47 0.261,-0.47C0.21,-0.47 0.155,-0.454 0.096,-0.423L0.096,-0.502C0.161,-0.529 0.222,-0.542 0.278,-0.542C0.338,-0.542 0.381,-0.529 0.409,-0.502C0.438,-0.475 0.452,-0.434 0.452,-0.377L0.452,-0.137C0.452,-0.082 0.469,-0.055 0.502,-0.055C0.507,-0.055 0.513,-0.055 0.521,-0.057L0.528,-0.003C0.506,0.007 0.482,0.012 0.456,0.012C0.411,0.012 0.382,-0.014 0.37,-0.067ZM0.355,-0.12L0.355,-0.257L0.323,-0.258C0.271,-0.258 0.228,-0.248 0.195,-0.228C0.163,-0.208 0.146,-0.181 0.146,-0.149C0.146,-0.126 0.155,-0.106 0.171,-0.09C0.187,-0.074 0.207,-0.066 0.23,-0.066C0.271,-0.066 0.312,-0.084 0.355,-0.12Z"
                          style="fill-rule:nonzero;"/>
                </g>
                <g transform="matrix(14,0,0,14,43.6885,0)">
                    <path d="M0.255,0.012C0.207,0.012 0.168,-0.002 0.141,-0.03C0.114,-0.058 0.1,-0.097 0.1,-0.146L0.1,-0.458L0.034,-0.458L0.034,-0.53L0.1,-0.53L0.1,-0.626L0.196,-0.636L0.196,-0.53L0.335,-0.53L0.335,-0.458L0.196,-0.458L0.196,-0.164C0.196,-0.095 0.226,-0.06 0.286,-0.06C0.299,-0.06 0.314,-0.062 0.333,-0.066L0.333,-0C0.303,0.008 0.277,0.012 0.255,0.012Z"
                          style="fill-rule:nonzero;"/>
                </g>
                <g transform="matrix(14,0,0,14,48.9248,0)">
                    <path d="M0.485,-0.017C0.42,0.002 0.365,0.012 0.319,0.012C0.241,0.012 0.177,-0.014 0.128,-0.066C0.079,-0.118 0.054,-0.185 0.054,-0.268C0.054,-0.348 0.076,-0.414 0.119,-0.465C0.163,-0.517 0.218,-0.542 0.286,-0.542C0.35,-0.542 0.4,-0.52 0.435,-0.474C0.47,-0.429 0.487,-0.364 0.487,-0.28L0.487,-0.25L0.152,-0.25C0.166,-0.124 0.228,-0.061 0.337,-0.061C0.377,-0.061 0.427,-0.072 0.485,-0.093L0.485,-0.017ZM0.157,-0.322L0.391,-0.322C0.391,-0.421 0.354,-0.47 0.28,-0.47C0.206,-0.47 0.165,-0.421 0.157,-0.322Z"
                          style="fill-rule:nonzero;"/>
                </g>
            </g>
        </g>
        <g transform="matrix(1,0,0,1,7.18635,30.7082)">
            <g id="text78">
                <g transform="matrix(18.5561,0,0,18.5561,0,0)">
                    <path d="M0.403,0.018C0.291,0.018 0.204,-0.015 0.143,-0.081C0.081,-0.147 0.051,-0.24 0.051,-0.361C0.051,-0.481 0.082,-0.575 0.144,-0.641C0.207,-0.708 0.294,-0.741 0.408,-0.741C0.472,-0.741 0.548,-0.73 0.635,-0.709L0.635,-0.613C0.536,-0.647 0.46,-0.664 0.406,-0.664C0.328,-0.664 0.267,-0.638 0.224,-0.584C0.181,-0.531 0.16,-0.457 0.16,-0.36C0.16,-0.268 0.183,-0.195 0.229,-0.142C0.274,-0.089 0.337,-0.062 0.417,-0.062C0.485,-0.062 0.558,-0.083 0.636,-0.125L0.636,-0.037C0.565,-0 0.487,0.018 0.403,0.018Z"
                          style="fill-rule:nonzero;"/>
                </g>
                <g transform="matrix(18.5561,0,0,18.5561,12.8389,0)">
                    <rect height="0.771" style="fill-rule:nonzero;" width="0.096" x="0.096" y="-0.771"/>
                </g>
                <g transform="matrix(18.5561,0,0,18.5561,18.2027,0)">
                    <path d="M0.304,0.012C0.228,0.012 0.167,-0.013 0.122,-0.063C0.077,-0.114 0.054,-0.181 0.054,-0.265C0.054,-0.35 0.077,-0.418 0.122,-0.468C0.168,-0.517 0.229,-0.542 0.307,-0.542C0.385,-0.542 0.447,-0.517 0.492,-0.468C0.537,-0.418 0.56,-0.351 0.56,-0.266C0.56,-0.18 0.537,-0.111 0.492,-0.062C0.446,-0.013 0.383,0.012 0.304,0.012ZM0.305,-0.06C0.407,-0.06 0.458,-0.129 0.458,-0.266C0.458,-0.402 0.408,-0.47 0.307,-0.47C0.207,-0.47 0.157,-0.402 0.157,-0.265C0.157,-0.128 0.206,-0.06 0.305,-0.06Z"
                          style="fill-rule:nonzero;"/>
                </g>
                <g transform="matrix(18.5561,0,0,18.5561,29.601,0)">
                    <path d="M0.303,0.012C0.232,0.012 0.172,-0.014 0.125,-0.067C0.078,-0.12 0.054,-0.187 0.054,-0.268C0.054,-0.354 0.078,-0.422 0.124,-0.47C0.171,-0.518 0.236,-0.542 0.32,-0.542C0.361,-0.542 0.407,-0.536 0.458,-0.525L0.458,-0.444C0.404,-0.46 0.36,-0.468 0.326,-0.468C0.277,-0.468 0.237,-0.45 0.207,-0.413C0.177,-0.376 0.163,-0.327 0.163,-0.265C0.163,-0.206 0.178,-0.157 0.208,-0.121C0.239,-0.084 0.279,-0.065 0.329,-0.065C0.373,-0.065 0.418,-0.077 0.464,-0.099L0.464,-0.016C0.402,0.003 0.348,0.012 0.303,0.012Z"
                          style="fill-rule:nonzero;"/>
                </g>
                <g transform="matrix(18.5561,0,0,18.5561,39.1055,0)">
                    <path d="M0.096,-0L0.096,-0.771L0.192,-0.771L0.192,-0.273L0.417,-0.53L0.521,-0.53L0.306,-0.283L0.565,-0L0.442,-0L0.192,-0.272L0.192,-0L0.096,-0Z"
                          style="fill-rule:nonzero;"/>
                </g>
                <g transform="matrix(18.5561,0,0,18.5561,49.9511,0)">
                    <path d="M0.235,0.018C0.186,0.018 0.124,0.007 0.049,-0.014L0.049,-0.115C0.13,-0.077 0.197,-0.059 0.25,-0.059C0.29,-0.059 0.322,-0.069 0.347,-0.09C0.372,-0.111 0.384,-0.139 0.384,-0.174C0.384,-0.202 0.376,-0.226 0.36,-0.246C0.344,-0.266 0.314,-0.288 0.271,-0.313L0.221,-0.341C0.159,-0.376 0.116,-0.41 0.091,-0.441C0.065,-0.472 0.053,-0.508 0.053,-0.549C0.053,-0.605 0.073,-0.651 0.113,-0.687C0.154,-0.723 0.205,-0.741 0.268,-0.741C0.323,-0.741 0.382,-0.731 0.444,-0.713L0.444,-0.619C0.368,-0.649 0.311,-0.664 0.273,-0.664C0.238,-0.664 0.209,-0.655 0.186,-0.636C0.162,-0.617 0.151,-0.593 0.151,-0.564C0.151,-0.54 0.159,-0.519 0.176,-0.5C0.193,-0.482 0.224,-0.46 0.269,-0.434L0.321,-0.405C0.383,-0.369 0.427,-0.336 0.452,-0.304C0.476,-0.273 0.489,-0.235 0.489,-0.19C0.489,-0.128 0.466,-0.077 0.419,-0.039C0.373,-0.001 0.311,0.018 0.235,0.018Z"
                          style="fill-rule:nonzero;"/>
                </g>
                <g transform="matrix(18.5561,0,0,18.5561,59.9449,0)">
                    <path d="M0.127,0.193L0.213,-0L0.008,-0.53L0.112,-0.53L0.264,-0.131L0.426,-0.53L0.517,-0.53L0.227,0.193L0.127,0.193Z"
                          style="fill-rule:nonzero;"/>
                </g>
                <g transform="matrix(18.5561,0,0,18.5561,69.6397,0)">
                    <path d="M0.096,-0L0.096,-0.53L0.192,-0.53L0.192,-0.431C0.243,-0.505 0.305,-0.542 0.379,-0.542C0.425,-0.542 0.461,-0.527 0.489,-0.498C0.516,-0.469 0.53,-0.43 0.53,-0.381L0.53,-0L0.434,-0L0.434,-0.35C0.434,-0.389 0.428,-0.417 0.416,-0.434C0.405,-0.451 0.386,-0.459 0.359,-0.459C0.3,-0.459 0.244,-0.42 0.192,-0.343L0.192,-0L0.096,-0Z"
                          style="fill-rule:nonzero;"/>
                </g>
                <g transform="matrix(18.5561,0,0,18.5561,81.1558,0)">
                    <path d="M0.303,0.012C0.232,0.012 0.172,-0.014 0.125,-0.067C0.078,-0.12 0.054,-0.187 0.054,-0.268C0.054,-0.354 0.078,-0.422 0.124,-0.47C0.171,-0.518 0.236,-0.542 0.32,-0.542C0.361,-0.542 0.407,-0.536 0.458,-0.525L0.458,-0.444C0.404,-0.46 0.36,-0.468 0.326,-0.468C0.277,-0.468 0.237,-0.45 0.207,-0.413C0.177,-0.376 0.163,-0.327 0.163,-0.265C0.163,-0.206 0.178,-0.157 0.208,-0.121C0.239,-0.084 0.279,-0.065 0.329,-0.065C0.373,-0.065 0.418,-0.077 0.464,-0.099L0.464,-0.016C0.402,0.003 0.348,0.012 0.303,0.012Z"
                          style="fill-rule:nonzero;"/>
                </g>
            </g>
        </g>
        <g transform="matrix(1,0,0,1,106.621,70.2837)">
            <g id="text82">
                <g transform="matrix(14,0,0,14,0,0)">
                    <path d="M0.093,-0L0.093,-0.723L0.312,-0.723C0.381,-0.723 0.434,-0.707 0.471,-0.677C0.508,-0.646 0.527,-0.602 0.527,-0.543C0.527,-0.447 0.478,-0.379 0.381,-0.338L0.622,-0L0.496,-0L0.291,-0.306L0.195,-0.306L0.195,-0L0.093,-0ZM0.195,-0.382L0.228,-0.382C0.357,-0.382 0.421,-0.433 0.421,-0.534C0.421,-0.609 0.367,-0.646 0.259,-0.646L0.195,-0.646L0.195,-0.382Z"
                          style="fill-rule:nonzero;"/>
                </g>
                <g transform="matrix(14,0,0,14,8.85254,0)">
                    <path d="M0.428,-0L0.428,-0.1C0.377,-0.025 0.315,0.012 0.242,0.012C0.195,0.012 0.159,-0.002 0.131,-0.031C0.104,-0.061 0.09,-0.1 0.09,-0.149L0.09,-0.53L0.187,-0.53L0.187,-0.181C0.187,-0.141 0.192,-0.113 0.204,-0.096C0.215,-0.079 0.235,-0.071 0.262,-0.071C0.32,-0.071 0.376,-0.109 0.428,-0.187L0.428,-0.53L0.524,-0.53L0.524,-0L0.428,-0Z"
                          style="fill-rule:nonzero;"/>
                </g>
                <g transform="matrix(14,0,0,14,17.541,0)">
                    <path d="M0.096,-0L0.096,-0.53L0.192,-0.53L0.192,-0.431C0.243,-0.505 0.305,-0.542 0.379,-0.542C0.425,-0.542 0.461,-0.527 0.489,-0.498C0.516,-0.469 0.53,-0.43 0.53,-0.381L0.53,-0L0.434,-0L0.434,-0.35C0.434,-0.389 0.428,-0.417 0.416,-0.434C0.405,-0.451 0.386,-0.459 0.359,-0.459C0.3,-0.459 0.244,-0.42 0.192,-0.343L0.192,-0L0.096,-0Z"
                          style="fill-rule:nonzero;"/>
                </g>
            </g>
        </g>
        <g transform="matrix(1,0,0,1,103.274,120.008)">
            <g id="text86">
                <g transform="matrix(14,0,0,14,0,0)">
                    <path d="M0.235,0.018C0.186,0.018 0.124,0.007 0.049,-0.014L0.049,-0.115C0.13,-0.077 0.197,-0.059 0.25,-0.059C0.29,-0.059 0.322,-0.069 0.347,-0.09C0.372,-0.111 0.384,-0.139 0.384,-0.174C0.384,-0.202 0.376,-0.226 0.36,-0.246C0.344,-0.266 0.314,-0.288 0.271,-0.313L0.221,-0.341C0.159,-0.376 0.116,-0.41 0.091,-0.441C0.065,-0.472 0.053,-0.508 0.053,-0.549C0.053,-0.605 0.073,-0.651 0.113,-0.687C0.154,-0.723 0.205,-0.741 0.268,-0.741C0.323,-0.741 0.382,-0.731 0.444,-0.713L0.444,-0.619C0.368,-0.649 0.311,-0.664 0.273,-0.664C0.238,-0.664 0.209,-0.655 0.186,-0.636C0.162,-0.617 0.151,-0.593 0.151,-0.564C0.151,-0.54 0.159,-0.519 0.176,-0.5C0.193,-0.482 0.224,-0.46 0.269,-0.434L0.321,-0.405C0.383,-0.369 0.427,-0.336 0.452,-0.304C0.476,-0.273 0.489,-0.235 0.489,-0.19C0.489,-0.128 0.466,-0.077 0.419,-0.039C0.373,-0.001 0.311,0.018 0.235,0.018Z"
                          style="fill-rule:nonzero;"/>
                </g>
                <g transform="matrix(14,0,0,14,7.54004,0)">
                    <path d="M0.127,0.193L0.213,-0L0.008,-0.53L0.112,-0.53L0.264,-0.131L0.426,-0.53L0.517,-0.53L0.227,0.193L0.127,0.193Z"
                          style="fill-rule:nonzero;"/>
                </g>
                <g transform="matrix(14,0,0,14,14.8545,0)">
                    <path d="M0.096,-0L0.096,-0.53L0.192,-0.53L0.192,-0.431C0.243,-0.505 0.305,-0.542 0.379,-0.542C0.425,-0.542 0.461,-0.527 0.489,-0.498C0.516,-0.469 0.53,-0.43 0.53,-0.381L0.53,-0L0.434,-0L0.434,-0.35C0.434,-0.389 0.428,-0.417 0.416,-0.434C0.405,-0.451 0.386,-0.459 0.359,-0.459C0.3,-0.459 0.244,-0.42 0.192,-0.343L0.192,-0L0.096,-0Z"
                          style="fill-rule:nonzero;"/>
                </g>
                <g transform="matrix(14,0,0,14,23.543,0)">
                    <path d="M0.303,0.012C0.232,0.012 0.172,-0.014 0.125,-0.067C0.078,-0.12 0.054,-0.187 0.054,-0.268C0.054,-0.354 0.078,-0.422 0.124,-0.47C0.171,-0.518 0.236,-0.542 0.32,-0.542C0.361,-0.542 0.407,-0.536 0.458,-0.525L0.458,-0.444C0.404,-0.46 0.36,-0.468 0.326,-0.468C0.277,-0.468 0.237,-0.45 0.207,-0.413C0.177,-0.376 0.163,-0.327 0.163,-0.265C0.163,-0.206 0.178,-0.157 0.208,-0.121C0.239,-0.084 0.279,-0.065 0.329,-0.065C0.373,-0.065 0.418,-0.077 0.464,-0.099L0.464,-0.016C0.402,0.003 0.348,0.012 0.303,0.012Z"
                          style="fill-rule:nonzero;"/>
                </g>
            </g>
        </g>
        <g transform="matrix(1,0,0,1,70.2837,161.492)">
            <g id="text90">
                <g transform="matrix(14,0,0,14,0,0)">
                    <path d="M0.265,-0L0.265,-0.646L0.009,-0.646L0.009,-0.723L0.624,-0.723L0.624,-0.646L0.368,-0.646L0.368,-0L0.265,-0Z"
                          style="fill-rule:nonzero;"/>
                </g>
                <g transform="matrix(14,0,0,14,8.85254,0)">
                    <path d="M0.096,-0L0.096,-0.771L0.192,-0.771L0.192,-0.431C0.243,-0.505 0.305,-0.542 0.379,-0.542C0.425,-0.542 0.461,-0.527 0.489,-0.498C0.516,-0.469 0.53,-0.43 0.53,-0.381L0.53,-0L0.434,-0L0.434,-0.35C0.434,-0.389 0.428,-0.417 0.416,-0.434C0.405,-0.451 0.386,-0.459 0.359,-0.459C0.3,-0.459 0.244,-0.42 0.192,-0.343L0.192,-0L0.096,-0Z"
                          style="fill-rule:nonzero;"/>
                </g>
                <g transform="matrix(14,0,0,14,17.541,0)">
                    <path d="M0.096,-0L0.096,-0.53L0.192,-0.53L0.192,-0.431C0.23,-0.505 0.286,-0.542 0.358,-0.542C0.368,-0.542 0.378,-0.541 0.389,-0.54L0.389,-0.45C0.373,-0.455 0.358,-0.458 0.345,-0.458C0.284,-0.458 0.233,-0.422 0.192,-0.35L0.192,-0L0.096,-0Z"
                          style="fill-rule:nonzero;"/>
                </g>
                <g transform="matrix(14,0,0,14,23.2695,0)">
                    <path d="M0.485,-0.017C0.42,0.002 0.365,0.012 0.319,0.012C0.241,0.012 0.177,-0.014 0.128,-0.066C0.079,-0.118 0.054,-0.185 0.054,-0.268C0.054,-0.348 0.076,-0.414 0.119,-0.465C0.163,-0.517 0.218,-0.542 0.286,-0.542C0.35,-0.542 0.4,-0.52 0.435,-0.474C0.47,-0.429 0.487,-0.364 0.487,-0.28L0.487,-0.25L0.152,-0.25C0.166,-0.124 0.228,-0.061 0.337,-0.061C0.377,-0.061 0.427,-0.072 0.485,-0.093L0.485,-0.017ZM0.157,-0.322L0.391,-0.322C0.391,-0.421 0.354,-0.47 0.28,-0.47C0.206,-0.47 0.165,-0.421 0.157,-0.322Z"
                          style="fill-rule:nonzero;"/>
                </g>
                <g transform="matrix(14,0,0,14,31.0693,0)">
                    <path d="M0.237,0.012C0.193,0.012 0.139,0.002 0.077,-0.019L0.077,-0.107C0.139,-0.076 0.194,-0.06 0.241,-0.06C0.268,-0.06 0.291,-0.068 0.31,-0.083C0.328,-0.097 0.337,-0.116 0.337,-0.139C0.337,-0.172 0.311,-0.199 0.26,-0.22L0.204,-0.244C0.121,-0.279 0.08,-0.328 0.08,-0.393C0.08,-0.439 0.096,-0.476 0.129,-0.502C0.161,-0.529 0.206,-0.542 0.263,-0.542C0.293,-0.542 0.329,-0.538 0.373,-0.53L0.393,-0.526L0.393,-0.446C0.339,-0.462 0.297,-0.47 0.265,-0.47C0.203,-0.47 0.172,-0.447 0.172,-0.402C0.172,-0.373 0.196,-0.349 0.243,-0.329L0.289,-0.31C0.341,-0.287 0.379,-0.264 0.4,-0.24C0.422,-0.215 0.433,-0.184 0.433,-0.147C0.433,-0.101 0.415,-0.063 0.378,-0.033C0.341,-0.003 0.294,0.012 0.237,0.012Z"
                          style="fill-rule:nonzero;"/>
                </g>
                <g transform="matrix(14,0,0,14,38.2061,0)">
                    <path d="M0.096,-0L0.096,-0.771L0.192,-0.771L0.192,-0.431C0.243,-0.505 0.305,-0.542 0.379,-0.542C0.425,-0.542 0.461,-0.527 0.489,-0.498C0.516,-0.469 0.53,-0.43 0.53,-0.381L0.53,-0L0.434,-0L0.434,-0.35C0.434,-0.389 0.428,-0.417 0.416,-0.434C0.405,-0.451 0.386,-0.459 0.359,-0.459C0.3,-0.459 0.244,-0.42 0.192,-0.343L0.192,-0L0.096,-0Z"
                          style="fill-rule:nonzero;"/>
                </g>
                <g transform="matrix(14,0,0,14,46.8945,0)">
                    <path d="M0.304,0.012C0.228,0.012 0.167,-0.013 0.122,-0.063C0.077,-0.114 0.054,-0.181 0.054,-0.265C0.054,-0.35 0.077,-0.418 0.122,-0.468C0.168,-0.517 0.229,-0.542 0.307,-0.542C0.385,-0.542 0.447,-0.517 0.492,-0.468C0.537,-0.418 0.56,-0.351 0.56,-0.266C0.56,-0.18 0.537,-0.111 0.492,-0.062C0.446,-0.013 0.383,0.012 0.304,0.012ZM0.305,-0.06C0.407,-0.06 0.458,-0.129 0.458,-0.266C0.458,-0.402 0.408,-0.47 0.307,-0.47C0.207,-0.47 0.157,-0.402 0.157,-0.265C0.157,-0.128 0.206,-0.06 0.305,-0.06Z"
                          style="fill-rule:nonzero;"/>
                </g>
                <g transform="matrix(14,0,0,14,55.4942,0)">
                    <rect height="0.771" style="fill-rule:nonzero;" width="0.096" x="0.096" y="-0.771"/>
                </g>
                <g transform="matrix(14,0,0,14,59.541,0)">
                    <path d="M0.437,-0L0.437,-0.1C0.397,-0.025 0.339,0.012 0.26,0.012C0.196,0.012 0.146,-0.011 0.109,-0.058C0.073,-0.104 0.054,-0.168 0.054,-0.249C0.054,-0.337 0.075,-0.408 0.116,-0.461C0.158,-0.515 0.213,-0.542 0.28,-0.542C0.343,-0.542 0.395,-0.518 0.437,-0.47L0.437,-0.771L0.533,-0.771L0.533,-0L0.437,-0ZM0.437,-0.404C0.387,-0.448 0.34,-0.47 0.295,-0.47C0.203,-0.47 0.157,-0.399 0.157,-0.258C0.157,-0.134 0.198,-0.072 0.28,-0.072C0.333,-0.072 0.385,-0.101 0.437,-0.16L0.437,-0.404Z"
                          style="fill-rule:nonzero;"/>
                </g>
            </g>
        </g>
        <g transform="matrix(1,0,0,1,5.73745,252.926)">
            <g id="text94">
                <g transform="matrix(14,0,0,14,0,0)">
                    <path d="M0.093,-0L0.093,-0.723L0.235,-0.723L0.436,-0.164L0.642,-0.723L0.769,-0.723L0.769,-0L0.673,-0L0.673,-0.588L0.474,-0.048L0.375,-0.048L0.181,-0.589L0.181,-0L0.093,-0Z"
                          style="fill-rule:nonzero;"/>
                </g>
                <g transform="matrix(14,0,0,14,12.0586,0)">
                    <path d="M0.37,-0.067C0.312,-0.014 0.257,0.012 0.203,0.012C0.159,0.012 0.123,-0.002 0.094,-0.029C0.065,-0.057 0.05,-0.091 0.05,-0.133C0.05,-0.191 0.075,-0.236 0.123,-0.267C0.172,-0.298 0.242,-0.313 0.333,-0.313L0.355,-0.313L0.355,-0.377C0.355,-0.439 0.324,-0.47 0.261,-0.47C0.21,-0.47 0.155,-0.454 0.096,-0.423L0.096,-0.502C0.161,-0.529 0.222,-0.542 0.278,-0.542C0.338,-0.542 0.381,-0.529 0.409,-0.502C0.438,-0.475 0.452,-0.434 0.452,-0.377L0.452,-0.137C0.452,-0.082 0.469,-0.055 0.502,-0.055C0.507,-0.055 0.513,-0.055 0.521,-0.057L0.528,-0.003C0.506,0.007 0.482,0.012 0.456,0.012C0.411,0.012 0.382,-0.014 0.37,-0.067ZM0.355,-0.12L0.355,-0.257L0.323,-0.258C0.271,-0.258 0.228,-0.248 0.195,-0.228C0.163,-0.208 0.146,-0.181 0.146,-0.149C0.146,-0.126 0.155,-0.106 0.171,-0.09C0.187,-0.074 0.207,-0.066 0.23,-0.066C0.271,-0.066 0.312,-0.084 0.355,-0.12Z"
                          style="fill-rule:nonzero;"/>
                </g>
                <g transform="matrix(14,0,0,14,19.79,0)">
                    <path d="M0.096,-0L0.096,-0.53L0.192,-0.53L0.192,-0L0.096,-0ZM0.096,-0.626L0.096,-0.723L0.192,-0.723L0.192,-0.626L0.096,-0.626Z"
                          style="fill-rule:nonzero;"/>
                </g>
                <g transform="matrix(14,0,0,14,23.8369,0)">
                    <path d="M0.096,-0L0.096,-0.53L0.192,-0.53L0.192,-0.431C0.243,-0.505 0.305,-0.542 0.379,-0.542C0.425,-0.542 0.461,-0.527 0.489,-0.498C0.516,-0.469 0.53,-0.43 0.53,-0.381L0.53,-0L0.434,-0L0.434,-0.35C0.434,-0.389 0.428,-0.417 0.416,-0.434C0.405,-0.451 0.386,-0.459 0.359,-0.459C0.3,-0.459 0.244,-0.42 0.192,-0.343L0.192,-0L0.096,-0Z"
                          style="fill-rule:nonzero;"/>
                </g>
                <g transform="matrix(14,0,0,14,36.9551,0)">
                    <path d="M0.403,0.018C0.291,0.018 0.204,-0.015 0.143,-0.081C0.081,-0.147 0.051,-0.24 0.051,-0.361C0.051,-0.481 0.082,-0.575 0.144,-0.641C0.207,-0.708 0.294,-0.741 0.408,-0.741C0.472,-0.741 0.548,-0.73 0.635,-0.709L0.635,-0.613C0.536,-0.647 0.46,-0.664 0.406,-0.664C0.328,-0.664 0.267,-0.638 0.224,-0.584C0.181,-0.531 0.16,-0.457 0.16,-0.36C0.16,-0.268 0.183,-0.195 0.229,-0.142C0.274,-0.089 0.337,-0.062 0.417,-0.062C0.485,-0.062 0.558,-0.083 0.636,-0.125L0.636,-0.037C0.565,-0 0.487,0.018 0.403,0.018Z"
                          style="fill-rule:nonzero;"/>
                </g>
                <g transform="matrix(14,0,0,14,46.6416,0)">
                    <rect height="0.771" style="fill-rule:nonzero;" width="0.096" x="0.096" y="-0.771"/>
                </g>
                <g transform="matrix(14,0,0,14,50.6885,0)">
                    <path d="M0.096,-0L0.096,-0.771L0.192,-0.771L0.192,-0.273L0.417,-0.53L0.521,-0.53L0.306,-0.283L0.565,-0L0.442,-0L0.192,-0.272L0.192,-0L0.096,-0Z"
                          style="fill-rule:nonzero;"/>
                </g>
            </g>
        </g>
        <g transform="matrix(1,0,0,1,84.6273,304.085)">
            <g id="text98">
                <g transform="matrix(14,0,0,14,0,0)">
                    <path d="M0.093,-0L0.093,-0.723L0.497,-0.723L0.497,-0.646L0.196,-0.646L0.196,-0.414L0.448,-0.414L0.448,-0.338L0.196,-0.338L0.196,-0.077L0.518,-0.077L0.518,-0L0.093,-0Z"
                          style="fill:white;fill-rule:nonzero;"/>
                </g>
                <g transform="matrix(14,0,0,14,7.58789,0)">
                    <path d="M0.043,-0L0.245,-0.274L0.049,-0.53L0.163,-0.53L0.318,-0.326L0.458,-0.53L0.552,-0.53L0.368,-0.261L0.568,-0L0.454,-0L0.294,-0.21L0.14,-0L0.043,-0Z"
                          style="fill:white;fill-rule:nonzero;"/>
                </g>
                <g transform="matrix(14,0,0,14,16.1738,0)">
                    <path d="M0.255,0.012C0.207,0.012 0.168,-0.002 0.141,-0.03C0.114,-0.058 0.1,-0.097 0.1,-0.146L0.1,-0.458L0.034,-0.458L0.034,-0.53L0.1,-0.53L0.1,-0.626L0.196,-0.636L0.196,-0.53L0.335,-0.53L0.335,-0.458L0.196,-0.458L0.196,-0.164C0.196,-0.095 0.226,-0.06 0.286,-0.06C0.299,-0.06 0.314,-0.062 0.333,-0.066L0.333,-0C0.303,0.008 0.277,0.012 0.255,0.012Z"
                          style="fill:white;fill-rule:nonzero;"/>
                </g>
                <g transform="matrix(14,0,0,14,25.8398,0)">
                    <path d="M0.403,0.018C0.291,0.018 0.204,-0.015 0.143,-0.081C0.081,-0.147 0.051,-0.24 0.051,-0.361C0.051,-0.481 0.082,-0.575 0.144,-0.641C0.207,-0.708 0.294,-0.741 0.408,-0.741C0.472,-0.741 0.548,-0.73 0.635,-0.709L0.635,-0.613C0.536,-0.647 0.46,-0.664 0.406,-0.664C0.328,-0.664 0.267,-0.638 0.224,-0.584C0.181,-0.531 0.16,-0.457 0.16,-0.36C0.16,-0.268 0.183,-0.195 0.229,-0.142C0.274,-0.089 0.337,-0.062 0.417,-0.062C0.485,-0.062 0.558,-0.083 0.636,-0.125L0.636,-0.037C0.565,-0 0.487,0.018 0.403,0.018Z"
                          style="fill:white;fill-rule:nonzero;"/>
                </g>
                <g transform="matrix(14,0,0,14,35.5264,0)">
                    <rect height="0.771" style="fill:white;fill-rule:nonzero;" width="0.096" x="0.096" y="-0.771"/>
                </g>
                <g transform="matrix(14,0,0,14,39.5733,0)">
                    <path d="M0.096,-0L0.096,-0.771L0.192,-0.771L0.192,-0.273L0.417,-0.53L0.521,-0.53L0.306,-0.283L0.565,-0L0.442,-0L0.192,-0.272L0.192,-0L0.096,-0Z"
                          style="fill:white;fill-rule:nonzero;"/>
                </g>
            </g>
        </g>
        <rect height="54.357" id="rect1442-0" width="57" x="81.786" y="181.784"/>
        <g transform="matrix(1,0,0,1,94.6187,196.517)">
            <g id="text98-5">
                <g transform="matrix(12,0,0,12,0,0)">
                    <path d="M0.235,0.018C0.186,0.018 0.124,0.007 0.049,-0.014L0.049,-0.115C0.13,-0.077 0.197,-0.059 0.25,-0.059C0.29,-0.059 0.322,-0.069 0.347,-0.09C0.372,-0.111 0.384,-0.139 0.384,-0.174C0.384,-0.202 0.376,-0.226 0.36,-0.246C0.344,-0.266 0.314,-0.288 0.271,-0.313L0.221,-0.341C0.159,-0.376 0.116,-0.41 0.091,-0.441C0.065,-0.472 0.053,-0.508 0.053,-0.549C0.053,-0.605 0.073,-0.651 0.113,-0.687C0.154,-0.723 0.205,-0.741 0.268,-0.741C0.323,-0.741 0.382,-0.731 0.444,-0.713L0.444,-0.619C0.368,-0.649 0.311,-0.664 0.273,-0.664C0.238,-0.664 0.209,-0.655 0.186,-0.636C0.162,-0.617 0.151,-0.593 0.151,-0.564C0.151,-0.54 0.159,-0.519 0.176,-0.5C0.193,-0.482 0.224,-0.46 0.269,-0.434L0.321,-0.405C0.383,-0.369 0.427,-0.336 0.452,-0.304C0.476,-0.273 0.489,-0.235 0.489,-0.19C0.489,-0.128 0.466,-0.077 0.419,-0.039C0.373,-0.001 0.311,0.018 0.235,0.018Z"
                          style="fill:white;fill-rule:nonzero;"/>
                </g>
                <g transform="matrix(12,0,0,12,6.46289,0)">
                    <path d="M0.127,0.193L0.213,-0L0.008,-0.53L0.112,-0.53L0.264,-0.131L0.426,-0.53L0.517,-0.53L0.227,0.193L0.127,0.193Z"
                          style="fill:white;fill-rule:nonzero;"/>
                </g>
                <g transform="matrix(12,0,0,12,12.7324,0)">
                    <path d="M0.096,-0L0.096,-0.53L0.192,-0.53L0.192,-0.431C0.243,-0.505 0.305,-0.542 0.379,-0.542C0.425,-0.542 0.461,-0.527 0.489,-0.498C0.516,-0.469 0.53,-0.43 0.53,-0.381L0.53,-0L0.434,-0L0.434,-0.35C0.434,-0.389 0.428,-0.417 0.416,-0.434C0.405,-0.451 0.386,-0.459 0.359,-0.459C0.3,-0.459 0.244,-0.42 0.192,-0.343L0.192,-0L0.096,-0Z"
                          style="fill:white;fill-rule:nonzero;"/>
                </g>
                <g transform="matrix(12,0,0,12,20.1797,0)">
                    <path d="M0.303,0.012C0.232,0.012 0.172,-0.014 0.125,-0.067C0.078,-0.12 0.054,-0.187 0.054,-0.268C0.054,-0.354 0.078,-0.422 0.124,-0.47C0.171,-0.518 0.236,-0.542 0.32,-0.542C0.361,-0.542 0.407,-0.536 0.458,-0.525L0.458,-0.444C0.404,-0.46 0.36,-0.468 0.326,-0.468C0.277,-0.468 0.237,-0.45 0.207,-0.413C0.177,-0.376 0.163,-0.327 0.163,-0.265C0.163,-0.206 0.178,-0.157 0.208,-0.121C0.239,-0.084 0.279,-0.065 0.329,-0.065C0.373,-0.065 0.418,-0.077 0.464,-0.099L0.464,-0.016C0.402,0.003 0.348,0.012 0.303,0.012Z"
                          style="fill:white;fill-rule:nonzero;"/>
                </g>
            </g>
        </g>
        <g transform="matrix(1,0,0,1,-4.84129,5.07117)">
            <g transform="matrix(8,0,0,8,60.415,183.333)">
                <path d="M0.379,-0L0.344,-0.15L0.158,-0.15L0.122,-0L0.002,-0L0.178,-0.708L0.331,-0.708L0.504,-0L0.379,-0ZM0.254,-0.595L0.25,-0.595L0.173,-0.244L0.329,-0.244L0.254,-0.595Z"
                      style="fill-rule:nonzero;"/>
            </g>
            <g transform="matrix(8,0,0,8,64.463,183.333)">
                <rect height="0.756" style="fill-rule:nonzero;" width="0.114" x="0.068" y="-0.756"/>
            </g>
            <g transform="matrix(8,0,0,8,66.463,183.333)">
                <path d="M0.509,-0L0.388,-0L0.315,-0.349L0.314,-0.349L0.241,-0L0.123,-0L0.014,-0.51L0.13,-0.51L0.192,-0.135L0.194,-0.135L0.267,-0.51L0.367,-0.51L0.442,-0.135L0.444,-0.135L0.507,-0.51L0.62,-0.51L0.509,-0Z"
                      style="fill-rule:nonzero;"/>
            </g>
            <g transform="matrix(8,0,0,8,71.543,183.333)">
                <path d="M0.275,-0.239L0.242,-0.239C0.228,-0.239 0.215,-0.238 0.202,-0.236C0.189,-0.233 0.177,-0.229 0.167,-0.222C0.157,-0.215 0.149,-0.206 0.143,-0.195C0.137,-0.183 0.134,-0.168 0.134,-0.15C0.134,-0.123 0.14,-0.104 0.152,-0.091C0.163,-0.078 0.177,-0.072 0.192,-0.072C0.207,-0.072 0.22,-0.076 0.231,-0.085C0.242,-0.094 0.25,-0.105 0.257,-0.118C0.263,-0.131 0.268,-0.146 0.271,-0.163C0.274,-0.179 0.275,-0.195 0.275,-0.21L0.275,-0.239ZM0.279,-0.076C0.272,-0.048 0.258,-0.026 0.239,-0.011C0.22,0.005 0.194,0.013 0.162,0.013C0.147,0.013 0.132,0.01 0.117,0.005C0.102,-0 0.088,-0.009 0.076,-0.022C0.063,-0.034 0.053,-0.05 0.045,-0.07C0.037,-0.089 0.033,-0.113 0.033,-0.141C0.033,-0.177 0.04,-0.207 0.053,-0.23C0.066,-0.253 0.082,-0.271 0.103,-0.284C0.123,-0.297 0.146,-0.307 0.171,-0.312C0.196,-0.317 0.22,-0.319 0.244,-0.319L0.272,-0.319L0.272,-0.335C0.272,-0.369 0.265,-0.394 0.252,-0.409C0.238,-0.424 0.22,-0.431 0.197,-0.431C0.178,-0.431 0.16,-0.427 0.145,-0.418C0.129,-0.409 0.115,-0.397 0.104,-0.382L0.05,-0.453C0.069,-0.476 0.092,-0.495 0.121,-0.508C0.15,-0.521 0.178,-0.527 0.206,-0.527C0.237,-0.527 0.264,-0.522 0.286,-0.512C0.307,-0.502 0.325,-0.488 0.338,-0.469C0.351,-0.45 0.361,-0.426 0.367,-0.398C0.372,-0.37 0.375,-0.338 0.375,-0.303L0.375,-0L0.281,-0L0.281,-0.076L0.279,-0.076Z"
                      style="fill-rule:nonzero;"/>
            </g>
            <g transform="matrix(8,0,0,8,75.023,183.333)">
                <path d="M0.264,0.07C0.257,0.095 0.249,0.119 0.241,0.14C0.232,0.161 0.22,0.179 0.207,0.194C0.194,0.209 0.178,0.22 0.16,0.228C0.141,0.236 0.12,0.24 0.095,0.24C0.082,0.24 0.069,0.239 0.057,0.238C0.044,0.236 0.034,0.234 0.026,0.231L0.04,0.129C0.045,0.131 0.052,0.133 0.06,0.135C0.067,0.136 0.075,0.137 0.082,0.137C0.1,0.137 0.114,0.132 0.123,0.121C0.132,0.11 0.139,0.094 0.144,0.075L0.159,0.012L0.01,-0.51L0.129,-0.51L0.218,-0.126L0.221,-0.126L0.302,-0.51L0.417,-0.51L0.264,0.07Z"
                      style="fill-rule:nonzero;"/>
            </g>
            <g transform="matrix(8,0,0,8,78.439,183.333)">
                <path d="M0.285,-0.395C0.276,-0.408 0.264,-0.418 0.25,-0.426C0.236,-0.434 0.22,-0.438 0.202,-0.438C0.185,-0.438 0.171,-0.432 0.16,-0.421C0.149,-0.409 0.143,-0.393 0.143,-0.374C0.143,-0.354 0.149,-0.339 0.161,-0.331C0.173,-0.322 0.192,-0.312 0.218,-0.303C0.233,-0.298 0.247,-0.291 0.262,-0.284C0.276,-0.276 0.289,-0.266 0.301,-0.254C0.312,-0.242 0.322,-0.228 0.329,-0.211C0.335,-0.194 0.339,-0.173 0.339,-0.15C0.339,-0.122 0.335,-0.097 0.326,-0.077C0.317,-0.055 0.304,-0.038 0.289,-0.024C0.274,-0.01 0.256,0 0.237,0.007C0.217,0.014 0.196,0.017 0.175,0.017C0.143,0.017 0.113,0.011 0.086,-0.002C0.058,-0.015 0.034,-0.032 0.015,-0.053L0.076,-0.125C0.088,-0.111 0.102,-0.099 0.118,-0.089C0.134,-0.079 0.153,-0.074 0.174,-0.074C0.193,-0.074 0.207,-0.08 0.218,-0.093C0.229,-0.106 0.234,-0.122 0.234,-0.143C0.234,-0.167 0.226,-0.184 0.211,-0.195C0.195,-0.206 0.174,-0.216 0.148,-0.225C0.135,-0.23 0.122,-0.235 0.109,-0.242C0.096,-0.249 0.085,-0.258 0.074,-0.269C0.063,-0.28 0.055,-0.294 0.049,-0.311C0.042,-0.327 0.039,-0.347 0.039,-0.37C0.039,-0.395 0.044,-0.417 0.053,-0.436C0.062,-0.455 0.073,-0.472 0.088,-0.486C0.103,-0.499 0.12,-0.509 0.139,-0.517C0.158,-0.524 0.178,-0.527 0.199,-0.527C0.23,-0.527 0.257,-0.522 0.282,-0.511C0.307,-0.5 0.328,-0.485 0.345,-0.468L0.285,-0.395Z"
                      style="fill-rule:nonzero;"/>
            </g>
        </g>
        <g transform="matrix(1,0,0,1,-4.47864,41.9664)">
            <g transform="matrix(8,0,0,8,60.415,183.333)">
                <path d="M0.072,-0L0.072,-0.708L0.193,-0.708L0.193,-0.111L0.388,-0.111L0.388,-0L0.072,-0Z"
                      style="fill-rule:nonzero;"/>
            </g>
            <g transform="matrix(8,0,0,8,63.567,183.333)">
                <path d="M0.19,-0.658C0.19,-0.638 0.184,-0.621 0.171,-0.608C0.158,-0.595 0.143,-0.588 0.124,-0.588C0.105,-0.588 0.089,-0.595 0.077,-0.608C0.064,-0.621 0.058,-0.638 0.058,-0.658C0.058,-0.677 0.064,-0.694 0.077,-0.708C0.089,-0.722 0.105,-0.729 0.124,-0.729C0.143,-0.729 0.159,-0.722 0.172,-0.708C0.184,-0.694 0.19,-0.677 0.19,-0.658ZM0.068,-0L0.068,-0.51L0.18,-0.51L0.18,-0L0.068,-0Z"
                      style="fill-rule:nonzero;"/>
            </g>
            <g transform="matrix(8,0,0,8,65.551,183.333)">
                <path d="M0.181,-0.51L0.181,-0.429L0.183,-0.429C0.192,-0.456 0.208,-0.48 0.23,-0.499C0.251,-0.518 0.278,-0.527 0.31,-0.527C0.338,-0.527 0.361,-0.521 0.378,-0.51C0.395,-0.498 0.408,-0.482 0.417,-0.463C0.426,-0.444 0.433,-0.422 0.436,-0.397C0.439,-0.372 0.441,-0.346 0.441,-0.32L0.441,-0L0.328,-0L0.328,-0.32C0.328,-0.333 0.327,-0.345 0.326,-0.359C0.325,-0.372 0.322,-0.383 0.318,-0.394C0.313,-0.405 0.307,-0.413 0.299,-0.42C0.29,-0.426 0.279,-0.429 0.266,-0.429C0.241,-0.429 0.221,-0.416 0.206,-0.391C0.191,-0.366 0.183,-0.334 0.183,-0.295L0.183,-0L0.07,-0L0.07,-0.51L0.181,-0.51Z"
                      style="fill-rule:nonzero;"/>
            </g>
            <g transform="matrix(8,0,0,8,69.591,183.333)">
                <path d="M0.319,-0L0.184,-0.245L0.182,-0.245L0.182,-0L0.069,-0L0.069,-0.756L0.182,-0.756L0.182,-0.295L0.184,-0.295L0.314,-0.51L0.445,-0.51L0.285,-0.275L0.452,-0L0.319,-0Z"
                      style="fill-rule:nonzero;"/>
            </g>
            <g transform="matrix(8,0,0,8,74.775,183.333)">
                <path d="M0.182,-0.423L0.182,-0.161C0.182,-0.133 0.186,-0.113 0.195,-0.1C0.203,-0.087 0.216,-0.081 0.233,-0.081C0.239,-0.081 0.245,-0.082 0.252,-0.083C0.258,-0.084 0.263,-0.086 0.268,-0.089L0.27,-0.001C0.262,0.003 0.251,0.006 0.238,0.009C0.225,0.012 0.211,0.013 0.198,0.013C0.155,0.013 0.124,0 0.105,-0.026C0.086,-0.051 0.076,-0.088 0.076,-0.136L0.076,-0.423L0.012,-0.423L0.012,-0.51L0.076,-0.51L0.076,-0.64L0.182,-0.64L0.182,-0.51L0.271,-0.51L0.271,-0.423L0.182,-0.423Z"
                      style="fill-rule:nonzero;"/>
            </g>
            <g transform="matrix(8,0,0,8,77.047,183.333)">
                <path d="M0.43,-0.254C0.43,-0.214 0.426,-0.177 0.417,-0.144C0.408,-0.111 0.395,-0.082 0.378,-0.059C0.361,-0.035 0.34,-0.016 0.316,-0.003C0.292,0.01 0.265,0.017 0.234,0.017C0.203,0.017 0.176,0.01 0.152,-0.003C0.128,-0.016 0.108,-0.035 0.091,-0.059C0.074,-0.082 0.061,-0.111 0.052,-0.144C0.043,-0.177 0.038,-0.214 0.038,-0.254C0.038,-0.295 0.043,-0.332 0.052,-0.366C0.061,-0.399 0.073,-0.428 0.09,-0.452C0.107,-0.476 0.127,-0.495 0.152,-0.508C0.176,-0.521 0.203,-0.527 0.234,-0.527C0.265,-0.527 0.292,-0.521 0.316,-0.508C0.34,-0.495 0.361,-0.476 0.378,-0.452C0.395,-0.428 0.408,-0.399 0.417,-0.366C0.426,-0.332 0.43,-0.295 0.43,-0.254ZM0.318,-0.255C0.318,-0.28 0.316,-0.303 0.313,-0.324C0.31,-0.345 0.305,-0.363 0.298,-0.379C0.291,-0.394 0.282,-0.407 0.272,-0.416C0.261,-0.425 0.249,-0.429 0.234,-0.429C0.219,-0.429 0.207,-0.425 0.197,-0.416C0.186,-0.407 0.178,-0.394 0.171,-0.379C0.164,-0.363 0.159,-0.345 0.156,-0.324C0.153,-0.303 0.151,-0.28 0.151,-0.255C0.151,-0.231 0.153,-0.208 0.156,-0.187C0.159,-0.166 0.164,-0.147 0.171,-0.132C0.178,-0.117 0.186,-0.105 0.197,-0.096C0.207,-0.087 0.219,-0.082 0.234,-0.082C0.249,-0.082 0.261,-0.087 0.272,-0.096C0.283,-0.105 0.291,-0.117 0.298,-0.132C0.305,-0.147 0.31,-0.166 0.313,-0.187C0.316,-0.208 0.318,-0.231 0.318,-0.255Z"
                      style="fill-rule:nonzero;"/>
            </g>
            <g transform="matrix(8,0,0,8,61.971,191.333)">
                <path d="M0.558,-0L0.56,-0.544L0.557,-0.544L0.415,-0L0.321,-0L0.182,-0.544L0.179,-0.544L0.181,-0L0.072,-0L0.072,-0.708L0.233,-0.708L0.369,-0.19L0.373,-0.19L0.506,-0.708L0.675,-0.708L0.675,-0L0.558,-0Z"
                      style="fill-rule:nonzero;"/>
            </g>
            <g transform="matrix(8,0,0,8,67.939,191.333)">
                <path d="M0.43,-0.254C0.43,-0.214 0.426,-0.177 0.417,-0.144C0.408,-0.111 0.395,-0.082 0.378,-0.059C0.361,-0.035 0.34,-0.016 0.316,-0.003C0.292,0.01 0.265,0.017 0.234,0.017C0.203,0.017 0.176,0.01 0.152,-0.003C0.128,-0.016 0.108,-0.035 0.091,-0.059C0.074,-0.082 0.061,-0.111 0.052,-0.144C0.043,-0.177 0.038,-0.214 0.038,-0.254C0.038,-0.295 0.043,-0.332 0.052,-0.366C0.061,-0.399 0.073,-0.428 0.09,-0.452C0.107,-0.476 0.127,-0.495 0.152,-0.508C0.176,-0.521 0.203,-0.527 0.234,-0.527C0.265,-0.527 0.292,-0.521 0.316,-0.508C0.34,-0.495 0.361,-0.476 0.378,-0.452C0.395,-0.428 0.408,-0.399 0.417,-0.366C0.426,-0.332 0.43,-0.295 0.43,-0.254ZM0.318,-0.255C0.318,-0.28 0.316,-0.303 0.313,-0.324C0.31,-0.345 0.305,-0.363 0.298,-0.379C0.291,-0.394 0.282,-0.407 0.272,-0.416C0.261,-0.425 0.249,-0.429 0.234,-0.429C0.219,-0.429 0.207,-0.425 0.197,-0.416C0.186,-0.407 0.178,-0.394 0.171,-0.379C0.164,-0.363 0.159,-0.345 0.156,-0.324C0.153,-0.303 0.151,-0.28 0.151,-0.255C0.151,-0.231 0.153,-0.208 0.156,-0.187C0.159,-0.166 0.164,-0.147 0.171,-0.132C0.178,-0.117 0.186,-0.105 0.197,-0.096C0.207,-0.087 0.219,-0.082 0.234,-0.082C0.249,-0.082 0.261,-0.087 0.272,-0.096C0.283,-0.105 0.291,-0.117 0.298,-0.132C0.305,-0.147 0.31,-0.166 0.313,-0.187C0.316,-0.208 0.318,-0.231 0.318,-0.255Z"
                      style="fill-rule:nonzero;"/>
            </g>
            <g transform="matrix(8,0,0,8,71.683,191.333)">
                <path d="M0.319,-0L0.319,-0.073L0.317,-0.073C0.31,-0.048 0.297,-0.026 0.28,-0.009C0.262,0.008 0.236,0.017 0.203,0.017C0.177,0.017 0.154,0.01 0.133,-0.004C0.112,-0.018 0.095,-0.038 0.081,-0.063C0.067,-0.088 0.056,-0.117 0.049,-0.151C0.042,-0.184 0.038,-0.221 0.038,-0.26C0.038,-0.299 0.042,-0.334 0.049,-0.367C0.056,-0.4 0.066,-0.428 0.08,-0.452C0.094,-0.475 0.111,-0.494 0.132,-0.507C0.152,-0.52 0.176,-0.527 0.203,-0.527C0.231,-0.527 0.255,-0.519 0.274,-0.504C0.293,-0.488 0.307,-0.468 0.314,-0.445L0.317,-0.445L0.317,-0.756L0.428,-0.756L0.428,-0L0.319,-0ZM0.321,-0.255C0.321,-0.28 0.319,-0.303 0.316,-0.324C0.312,-0.345 0.307,-0.363 0.3,-0.379C0.293,-0.394 0.284,-0.407 0.273,-0.416C0.262,-0.425 0.249,-0.429 0.235,-0.429C0.22,-0.429 0.208,-0.425 0.197,-0.416C0.186,-0.407 0.178,-0.394 0.171,-0.379C0.164,-0.363 0.159,-0.345 0.156,-0.324C0.153,-0.303 0.151,-0.28 0.151,-0.255C0.151,-0.231 0.153,-0.209 0.156,-0.188C0.159,-0.167 0.164,-0.148 0.171,-0.133C0.178,-0.117 0.186,-0.105 0.197,-0.096C0.208,-0.087 0.22,-0.082 0.235,-0.082C0.25,-0.082 0.262,-0.087 0.273,-0.096C0.284,-0.105 0.293,-0.117 0.3,-0.133C0.307,-0.148 0.312,-0.167 0.316,-0.188C0.319,-0.209 0.321,-0.231 0.321,-0.255Z"
                      style="fill-rule:nonzero;"/>
            </g>
            <g transform="matrix(8,0,0,8,75.651,191.333)">
                <path d="M0.149,-0.226C0.149,-0.206 0.151,-0.187 0.155,-0.17C0.159,-0.152 0.165,-0.137 0.173,-0.124C0.18,-0.111 0.19,-0.1 0.201,-0.093C0.212,-0.085 0.224,-0.081 0.239,-0.081C0.26,-0.081 0.276,-0.088 0.289,-0.101C0.301,-0.114 0.311,-0.13 0.318,-0.147L0.401,-0.099C0.386,-0.064 0.366,-0.035 0.339,-0.015C0.312,0.007 0.277,0.017 0.235,0.017C0.176,0.017 0.128,-0.006 0.092,-0.053C0.056,-0.1 0.038,-0.167 0.038,-0.254C0.038,-0.295 0.043,-0.332 0.052,-0.366C0.061,-0.399 0.075,-0.428 0.092,-0.452C0.109,-0.476 0.13,-0.495 0.154,-0.508C0.177,-0.521 0.204,-0.527 0.233,-0.527C0.266,-0.527 0.294,-0.52 0.317,-0.507C0.339,-0.494 0.358,-0.475 0.373,-0.453C0.387,-0.43 0.397,-0.402 0.404,-0.371C0.411,-0.34 0.414,-0.306 0.414,-0.269L0.414,-0.226L0.149,-0.226ZM0.306,-0.308C0.306,-0.346 0.3,-0.377 0.288,-0.401C0.276,-0.424 0.257,-0.436 0.232,-0.436C0.217,-0.436 0.205,-0.432 0.195,-0.423C0.184,-0.414 0.176,-0.404 0.17,-0.391C0.163,-0.378 0.158,-0.364 0.155,-0.349C0.152,-0.334 0.15,-0.32 0.15,-0.308L0.306,-0.308Z"
                      style="fill-rule:nonzero;"/>
            </g>
        </g>
    </g>
</svg>
