<?xml version="1.0" encoding="UTF-8" standalone="no"?>
<svg
   xmlns:dc="http://purl.org/dc/elements/1.1/"
   xmlns:cc="http://creativecommons.org/ns#"
   xmlns:rdf="http://www.w3.org/1999/02/22-rdf-syntax-ns#"
   xmlns:svg="http://www.w3.org/2000/svg"
   xmlns="http://www.w3.org/2000/svg"
   xmlns:sodipodi="http://sodipodi.sourceforge.net/DTD/sodipodi-0.dtd"
   xmlns:inkscape="http://www.inkscape.org/namespaces/inkscape"
   sodipodi:docname="ClockSync.svg"
   inkscape:version="1.0.2 (e86c8708, 2021-01-15)"
   id="svg8"
   version="1.1"
   viewBox="0 0 50.799999 128.5"
   height="128.5mm"
   width="50.799999mm">
  <defs
     id="defs2">
    <rect
       id="rect162"
       height="12.109637"
       width="13.153571"
       y="7.5163265"
       x="-24.845635" />
  </defs>
  <sodipodi:namedview
     inkscape:snap-global="false"
     inkscape:snap-page="true"
     inkscape:snap-bbox="true"
     inkscape:window-maximized="0"
     inkscape:window-y="409"
     inkscape:window-x="194"
     inkscape:window-height="942"
     inkscape:window-width="1398"
     showgrid="false"
     inkscape:document-rotation="0"
     inkscape:current-layer="layer1"
     inkscape:document-units="mm"
     inkscape:cy="204.98045"
     inkscape:cx="-73.581567"
     inkscape:zoom="1.566565"
     inkscape:pageshadow="2"
     inkscape:pageopacity="0.0"
     borderopacity="1.0"
     bordercolor="#666666"
     pagecolor="#ffffff"
     id="base" />
  <metadata
     id="metadata5">
    <rdf:RDF>
      <cc:Work
         rdf:about="">
        <dc:format>image/svg+xml</dc:format>
        <dc:type
           rdf:resource="http://purl.org/dc/dcmitype/StillImage" />
        <dc:title></dc:title>
      </cc:Work>
    </rdf:RDF>
  </metadata>
  <g
     style="display:inline"
     id="layer1"
     inkscape:groupmode="layer"
     inkscape:label="Layer 1">
    <rect
       style="fill:#ffffff;fill-opacity:1;stroke-width:0.3652"
       y="1.7528312e-14"
       x="2.3037128e-15"
       height="128.5"
       width="50.799999"
       id="rect517" />
    <rect
       y="101.05283"
       x="28.603794"
       height="23.271427"
       width="20.108339"
       id="rect1442"
       style="fill:#000000;fill-opacity:1;stroke-width:0.226674;stroke-miterlimit:4;stroke-dasharray:none" />
    <text
       style="font-style:normal;font-weight:normal;font-size:10.58329999999999949px;line-height:1.25;font-family:sans-serif;white-space:pre;shape-inside:url(#rect162);fill:#000000;fill-opacity:1;stroke:none;"
       id="text160"
       xml:space="preserve" />
    <g
       aria-label="Ext Gate"
       id="text83"
       style="font-style:normal;font-weight:normal;font-size:4.90866px;line-height:1.25;font-family:sans-serif;fill:#000000;fill-opacity:1;stroke:none;stroke-width:0.122717">
      <path
         d="M 5.4664802,107.05187 H 3.1007326 v -3.59082 h 2.3657476 v 0.42443 H 3.578223 v 0.98392 h 1.8882572 v 0.42444 H 3.578223 v 1.3336 h 1.8882572 z"
         style="font-style:normal;font-variant:normal;font-weight:normal;font-stretch:normal;font-size:4.93889px;font-family:sans-serif;-inkscape-font-specification:'sans-serif, Normal';font-variant-ligatures:normal;font-variant-caps:normal;font-variant-numeric:normal;font-variant-east-asian:normal;stroke-width:0.122717"
         id="path1307" />
      <path
         d="M 8.521936,107.05187 H 7.9503946 l -0.7644669,-1.03456 -0.76929,1.03456 H 5.8885045 l 1.0514433,-1.34324 -1.0417971,-1.35048 h 0.5715415 l 0.7596437,1.01768 0.7620553,-1.01768 H 8.521936 l -1.058678,1.32636 z"
         style="font-style:normal;font-variant:normal;font-weight:normal;font-stretch:normal;font-size:4.93889px;font-family:sans-serif;-inkscape-font-specification:'sans-serif, Normal';font-variant-ligatures:normal;font-variant-caps:normal;font-variant-numeric:normal;font-variant-east-asian:normal;stroke-width:0.122717"
         id="path1309" />
      <path
         d="m 10.511479,107.02776 q -0.127813,0.0338 -0.279742,0.0555 -0.149517,0.0217 -0.2676835,0.0217 -0.412378,0 -0.6270075,-0.22187 -0.2146295,-0.22186 -0.2146295,-0.71141 v -1.43247 H 8.8161474 v -0.38103 h 0.3062691 v -0.77411 h 0.4533747 v 0.77411 h 0.9356878 v 0.38103 H 9.5757912 v 1.22749 q 0,0.21221 0.00965,0.33279 0.00965,0.11817 0.067524,0.22187 0.053055,0.0965 0.1446941,0.14228 0.094051,0.0434 0.2845646,0.0434 0.110932,0 0.231511,-0.0314 0.120578,-0.0338 0.173633,-0.0555 h 0.02412 z"
         style="font-style:normal;font-variant:normal;font-weight:normal;font-stretch:normal;font-size:4.93889px;font-family:sans-serif;-inkscape-font-specification:'sans-serif, Normal';font-variant-ligatures:normal;font-variant-caps:normal;font-variant-numeric:normal;font-variant-east-asian:normal;stroke-width:0.122717"
         id="path1311" />
      <path
         d="m 15.828985,106.7866 q -0.294211,0.13505 -0.643889,0.23633 -0.347265,0.0989 -0.672827,0.0989 -0.419613,0 -0.76929,-0.11576 -0.349677,-0.11575 -0.595657,-0.34726 -0.248391,-0.23393 -0.383439,-0.5836 -0.135048,-0.35209 -0.135048,-0.82235 0,-0.86093 0.501606,-1.35771 0.504018,-0.49919 1.381828,-0.49919 0.306269,0 0.624596,0.0748 0.320739,0.0724 0.689708,0.2484 v 0.56671 h -0.04341 q -0.07476,-0.0579 -0.217041,-0.15192 -0.142282,-0.0941 -0.279742,-0.15676 -0.166398,-0.0747 -0.378616,-0.12299 -0.209806,-0.0506 -0.47749,-0.0506 -0.602892,0 -0.954981,0.38826 -0.349677,0.38585 -0.349677,1.04662 0,0.69695 0.366558,1.08521 0.366558,0.38585 0.998389,0.38585 0.231511,0 0.460609,-0.0458 0.231511,-0.0458 0.405144,-0.11817 v -0.88022 h -0.962216 v -0.41961 h 1.434883 z"
         style="font-style:normal;font-variant:normal;font-weight:normal;font-stretch:normal;font-size:4.93889px;font-family:sans-serif;-inkscape-font-specification:'sans-serif, Normal';font-variant-ligatures:normal;font-variant-caps:normal;font-variant-numeric:normal;font-variant-east-asian:normal;stroke-width:0.122717"
         id="path1313" />
      <path
         d="m 18.720454,107.05187 h -0.450963 v -0.28697 q -0.06029,0.041 -0.163987,0.11575 -0.101285,0.0724 -0.197748,0.11576 -0.113344,0.0555 -0.260449,0.0916 -0.147106,0.0386 -0.344855,0.0386 -0.364146,0 -0.617361,-0.24116 -0.253214,-0.24115 -0.253214,-0.61495 0,-0.30626 0.130224,-0.49437 0.132637,-0.19051 0.376205,-0.29903 0.24598,-0.10852 0.590834,-0.14711 0.344854,-0.0386 0.740351,-0.0579 v -0.0699 q 0,-0.15434 -0.05547,-0.25563 -0.05306,-0.10128 -0.15434,-0.15916 -0.09646,-0.0555 -0.231511,-0.0748 -0.135048,-0.0193 -0.282153,-0.0193 -0.178456,0 -0.397909,0.0482 -0.219452,0.0458 -0.453374,0.13505 h -0.02412 v -0.46061 q 0.132636,-0.0362 0.383439,-0.0796 0.250803,-0.0434 0.494371,-0.0434 0.284565,0 0.494372,0.0482 0.212218,0.0458 0.366558,0.15916 0.151929,0.11094 0.23151,0.28698 0.07958,0.17604 0.07958,0.43649 z m -0.450963,-0.66318 v -0.75 q -0.207395,0.0121 -0.489548,0.0362 -0.279742,0.0241 -0.443729,0.0699 -0.195337,0.0555 -0.315915,0.17364 -0.120578,0.11575 -0.120578,0.32073 0,0.23151 0.139871,0.34968 0.139871,0.11576 0.426847,0.11576 0.238745,0 0.436494,-0.0916 0.197748,-0.0941 0.366558,-0.22428 z"
         style="font-style:normal;font-variant:normal;font-weight:normal;font-stretch:normal;font-size:4.93889px;font-family:sans-serif;-inkscape-font-specification:'sans-serif, Normal';font-variant-ligatures:normal;font-variant-caps:normal;font-variant-numeric:normal;font-variant-east-asian:normal;stroke-width:0.122717"
         id="path1315" />
      <path
         d="m 20.996975,107.02776 q -0.127813,0.0338 -0.279742,0.0555 -0.149517,0.0217 -0.267684,0.0217 -0.412378,0 -0.627007,-0.22187 -0.21463,-0.22186 -0.21463,-0.71141 v -1.43247 h -0.306269 v -0.38103 h 0.306269 v -0.77411 h 0.453375 v 0.77411 h 0.935688 v 0.38103 h -0.935688 v 1.22749 q 0,0.21221 0.0096,0.33279 0.0096,0.11817 0.06752,0.22187 0.05305,0.0965 0.144694,0.14228 0.09405,0.0434 0.284565,0.0434 0.110932,0 0.23151,-0.0314 0.120579,-0.0338 0.173633,-0.0555 h 0.02412 z"
         style="font-style:normal;font-variant:normal;font-weight:normal;font-stretch:normal;font-size:4.93889px;font-family:sans-serif;-inkscape-font-specification:'sans-serif, Normal';font-variant-ligatures:normal;font-variant-caps:normal;font-variant-numeric:normal;font-variant-east-asian:normal;stroke-width:0.122717"
         id="path1317" />
      <path
         d="m 23.801627,105.75204 h -1.98472 q 0,0.24839 0.07476,0.43408 0.07476,0.18328 0.204984,0.30145 0.125401,0.11575 0.296622,0.17363 0.173633,0.0579 0.381028,0.0579 0.274919,0 0.552249,-0.10852 0.279742,-0.11094 0.397909,-0.21705 h 0.02411 v 0.49438 q -0.229099,0.0965 -0.467844,0.16157 -0.238745,0.0651 -0.501606,0.0651 -0.670416,0 -1.04662,-0.36173 -0.376205,-0.36415 -0.376205,-1.03215 0,-0.66077 0.359324,-1.04903 0.361735,-0.38827 0.950158,-0.38827 0.545014,0 0.839225,0.31833 0.296623,0.31833 0.296623,0.90434 z m -0.441317,-0.34727 q -0.0024,-0.35691 -0.180868,-0.55225 -0.176044,-0.19533 -0.537779,-0.19533 -0.364147,0 -0.581188,0.21463 -0.214629,0.21462 -0.243568,0.53295 z"
         style="font-style:normal;font-variant:normal;font-weight:normal;font-stretch:normal;font-size:4.93889px;font-family:sans-serif;-inkscape-font-specification:'sans-serif, Normal';font-variant-ligatures:normal;font-variant-caps:normal;font-variant-numeric:normal;font-variant-east-asian:normal;stroke-width:0.122717"
         id="path1319" />
    </g>
    <g
       aria-label="ClockSync"
       id="text78"
       style="font-style:normal;font-weight:normal;font-size:6.54618px;line-height:1.25;font-family:sans-serif;fill:#000000;fill-opacity:1;stroke:none;stroke-width:0.163654">
      <path
         d="M 5.7919598,8.900453 Q 5.6161591,8.9771661 5.4723222,9.04429 5.3316816,9.1114139 5.1015424,9.1849306 4.9065635,9.2456617 4.6764243,9.2872146 4.4494816,9.3319639 4.1745932,9.3319639 3.6567801,9.3319639 3.231662,9.188127 2.8097402,9.0410936 2.4964953,8.7310451 2.1896431,8.4273893 2.0170388,7.9607182 1.8444344,7.4908508 1.8444344,6.8707537 q 0,-0.5881333 0.1662116,-1.0516079 Q 2.1768576,5.3556711 2.4901026,5.0360334 2.7937584,4.7259849 3.2220729,4.5629697 3.6535837,4.3999544 4.1777895,4.3999544 q 0.3835653,0 0.7639341,0.092695 0.3835652,0.092695 0.8502362,0.3260304 V 5.5698284 H 5.7440142 Q 5.3508598,5.2406016 4.9640982,5.0903718 4.5773366,4.9401421 4.1362366,4.9401421 q -0.3611905,0 -0.6520608,0.118266 -0.287674,0.1150695 -0.5146167,0.3611906 -0.22055,0.2397282 -0.3452087,0.6073116 -0.1214623,0.3643869 -0.1214623,0.8438434 0,0.5018312 0.1342478,0.8630218 0.1374442,0.3611906 0.3516015,0.5881333 0.2237463,0.2365319 0.5210094,0.3516015 0.3004594,0.1118732 0.6328826,0.1118732 0.4570819,0 0.856629,-0.1566225 0.3995471,-0.1566225 0.7479522,-0.4698674 h 0.044749 z"
         style="stroke-width:0.163654"
         id="path1238" />
      <path
         d="M 7.2527043,9.2456617 H 6.6517854 V 4.2720994 h 0.6009189 z"
         style="stroke-width:0.163654"
         id="path1240" />
      <path
         d="m 11.4911,7.4620835 q 0,0.8726108 -0.447493,1.3776384 -0.447492,0.5050275 -1.1986409,0.5050275 -0.7575413,0 -1.205034,-0.5050275 -0.4442964,-0.5050276 -0.4442964,-1.3776384 0,-0.8726109 0.4442964,-1.3776385 0.4474927,-0.5082239 1.205034,-0.5082239 0.7511489,0 1.1986409,0.5082239 0.447493,0.5050276 0.447493,1.3776385 z m -0.620097,0 q 0,-0.6936138 -0.271692,-1.0292334 -0.271692,-0.3388159 -0.7543449,-0.3388159 -0.4890456,0 -0.7607376,0.3388159 -0.2684957,0.3356196 -0.2684957,1.0292334 0,0.6712391 0.271692,1.0196442 0.2716921,0.3452087 0.7575413,0.3452087 0.4794569,0 0.7511489,-0.3420124 0.274888,-0.3452087 0.274888,-1.0228405 z"
         style="stroke-width:0.163654"
         id="path1242" />
      <path
         d="m 15.064649,9.0219154 q -0.300459,0.1438369 -0.572151,0.2237463 -0.268496,0.07991 -0.572152,0.07991 -0.386761,0 -0.709595,-0.1118732 Q 12.887917,9.0986284 12.657778,8.8684893 12.424442,8.6383501 12.296587,8.2867487 12.168732,7.9351472 12.168732,7.4652798 q 0,-0.8758072 0.479456,-1.374442 0.482653,-0.4986348 1.272158,-0.4986348 0.306853,0 0.600919,0.086302 0.297263,0.086302 0.543384,0.2109609 v 0.6680427 h -0.03196 Q 14.757797,6.3433516 14.46373,6.228282 14.17286,6.1132124 13.894775,6.1132124 q -0.51142,0 -0.808683,0.3452087 -0.294067,0.3420124 -0.294067,1.0068587 0,0.6456682 0.287674,0.9940732 0.290871,0.3452087 0.815076,0.3452087 0.182194,0 0.37078,-0.047946 0.188586,-0.047946 0.338816,-0.1246587 0.131052,-0.067124 0.246121,-0.1406406 0.11507,-0.076713 0.182194,-0.1310514 h 0.03196 z"
         style="stroke-width:0.163654"
         id="path1244" />
      <path
         d="M 19.079299,9.2456617 H 18.286597 L 16.854621,7.6826335 16.464663,8.0534132 V 9.2456617 H 15.863744 V 4.2720994 h 0.600919 v 3.1899841 l 1.735632,-1.7867747 h 0.757541 l -1.658919,1.6493305 z"
         style="stroke-width:0.163654"
         id="path1246" />
      <path
         d="m 23.218607,7.8872016 q 0,0.2780848 -0.131051,0.5497768 -0.127855,0.271692 -0.361191,0.4602783 -0.25571,0.2045681 -0.597722,0.3196376 -0.338816,0.1150696 -0.818273,0.1150696 -0.514616,0 -0.926949,-0.095891 -0.409136,-0.095891 -0.834254,-0.2844775 V 8.1588936 h 0.04475 q 0.36119,0.3004594 0.834254,0.4634747 0.473064,0.1630152 0.888593,0.1630152 0.588133,0 0.914164,-0.22055 0.329227,-0.22055 0.329227,-0.5881334 0,-0.3164413 -0.156623,-0.466671 Q 22.250105,7.3597994 21.933664,7.2766936 21.693935,7.2127661 21.412654,7.1712132 21.13457,7.1296603 20.821325,7.0657327 20.188442,6.9314849 19.88159,6.6086508 19.577934,6.2826204 19.577934,5.761611 q 0,-0.5977225 0.505028,-0.9780913 0.505027,-0.3835653 1.281747,-0.3835653 0.501831,0 0.920556,0.095891 0.418726,0.095891 0.74156,0.2365319 v 0.7479522 h -0.04475 Q 22.710383,5.2501907 22.266087,5.099961 q -0.4411,-0.1534261 -0.904575,-0.1534261 -0.508224,0 -0.818272,0.2109609 -0.306852,0.2109608 -0.306852,0.543384 0,0.2972631 0.153426,0.466671 0.153426,0.169408 0.540187,0.2589066 0.204569,0.044749 0.581741,0.1086768 0.377172,0.063928 0.639275,0.1310514 0.530599,0.1406406 0.799095,0.4251181 0.268495,0.2844776 0.268495,0.7958979 z"
         style="stroke-width:0.163654"
         id="path1248" />
      <path
         d="M 27.274808,5.6753088 25.19077,10.562569 H 24.548298 L 25.213145,9.0730574 23.790757,5.6753088 h 0.652061 l 1.096357,2.6466 1.105947,-2.6466 z"
         style="stroke-width:0.163654"
         id="path1250" />
      <path
         d="M 31.046534,9.2456617 H 30.445615 V 7.2127661 q 0,-0.2461211 -0.02877,-0.4602783 -0.02877,-0.2173536 -0.105481,-0.3388159 -0.07991,-0.1342479 -0.230139,-0.1981754 -0.15023,-0.067124 -0.389958,-0.067124 -0.246121,0 -0.514617,0.1214623 -0.268495,0.1214623 -0.514616,0.3100485 V 9.2456617 H 28.061118 V 5.6753088 h 0.600919 v 0.3963507 q 0.281281,-0.2333355 0.58174,-0.3643869 0.30046,-0.1310515 0.616901,-0.1310515 0.578544,0 0.8822,0.3484051 0.303656,0.3484051 0.303656,1.0036623 z"
         style="stroke-width:0.163654"
         id="path1252" />
      <path
         d="m 34.843829,9.0219154 q -0.30046,0.1438369 -0.572152,0.2237463 -0.268495,0.07991 -0.572151,0.07991 -0.386762,0 -0.709596,-0.1118732 Q 32.667096,9.0986284 32.436957,8.8684893 32.203622,8.6383501 32.075767,8.2867487 31.947912,7.9351472 31.947912,7.4652798 q 0,-0.8758072 0.479456,-1.374442 0.482653,-0.4986348 1.272158,-0.4986348 0.306852,0 0.600919,0.086302 0.297263,0.086302 0.543384,0.2109609 v 0.6680427 h -0.03196 Q 34.536977,6.3433516 34.24291,6.228282 33.95204,6.1132124 33.673955,6.1132124 q -0.51142,0 -0.808683,0.3452087 -0.294067,0.3420124 -0.294067,1.0068587 0,0.6456682 0.287674,0.9940732 0.29087,0.3452087 0.815076,0.3452087 0.182193,0 0.37078,-0.047946 0.188586,-0.047946 0.338816,-0.1246587 0.131051,-0.067124 0.246121,-0.1406406 0.115069,-0.076713 0.182193,-0.1310514 h 0.03196 z"
         style="stroke-width:0.163654"
         id="path1254" />
    </g>
    <g
       aria-label="Run"
       id="text82"
       style="font-style:normal;font-variant:normal;font-weight:normal;font-stretch:normal;font-size:4.93889px;line-height:1.25;font-family:sans-serif;-inkscape-font-specification:'sans-serif, Normal';font-variant-ligatures:normal;font-variant-caps:normal;font-variant-numeric:normal;font-variant-east-asian:normal;fill:#000000;fill-opacity:1;stroke:none;stroke-width:0.264583">
      <path
         d="m 41.066829,24.794523 h -0.619773 l -1.200961,-1.427648 h -0.672827 v 1.427648 h -0.47749 v -3.590824 h 1.005623 q 0.325562,0 0.542603,0.04341 0.217041,0.041 0.390674,0.149517 0.195337,0.12299 0.303857,0.311092 0.110933,0.185691 0.110933,0.472667 0,0.388263 -0.195337,0.651123 -0.195337,0.26045 -0.53778,0.393086 z m -1.116556,-2.580377 q 0,-0.15434 -0.05547,-0.272507 -0.05305,-0.120578 -0.178456,-0.202572 -0.103697,-0.06993 -0.24598,-0.09646 -0.142282,-0.02894 -0.335208,-0.02894 h -0.561895 v 1.355301 h 0.482314 q 0.226687,0 0.395497,-0.03858 0.168809,-0.041 0.286976,-0.149518 0.108521,-0.101285 0.159164,-0.23151 0.05305,-0.132636 0.05305,-0.335208 z"
         style="font-style:normal;font-variant:normal;font-weight:normal;font-stretch:normal;font-size:4.93889px;font-family:sans-serif;-inkscape-font-specification:'sans-serif, Normal';font-variant-ligatures:normal;font-variant-caps:normal;font-variant-numeric:normal;font-variant-east-asian:normal;stroke-width:0.264583"
         id="path1257" />
      <path
         d="m 43.726788,24.794523 h -0.453375 v -0.299034 q -0.229099,0.180867 -0.438905,0.27733 -0.209807,0.09646 -0.463021,0.09646 -0.424436,0 -0.66077,-0.258038 -0.236333,-0.260449 -0.236333,-0.762055 v -1.748387 h 0.453374 v 1.533757 q 0,0.204984 0.01929,0.352089 0.01929,0.144694 0.08199,0.248392 0.06511,0.106109 0.16881,0.15434 0.103697,0.04823 0.301446,0.04823 0.176044,0 0.383439,-0.09164 0.209807,-0.09164 0.390674,-0.233922 v -2.011248 h 0.453375 z"
         style="font-style:normal;font-variant:normal;font-weight:normal;font-stretch:normal;font-size:4.93889px;font-family:sans-serif;-inkscape-font-specification:'sans-serif, Normal';font-variant-ligatures:normal;font-variant-caps:normal;font-variant-numeric:normal;font-variant-east-asian:normal;stroke-width:0.264583"
         id="path1259" />
      <path
         d="m 46.871472,24.794523 h -0.453375 v -1.533757 q 0,-0.18569 -0.0217,-0.347265 -0.0217,-0.163987 -0.07958,-0.255626 -0.06029,-0.101286 -0.173633,-0.149518 -0.113343,-0.05064 -0.294211,-0.05064 -0.185691,0 -0.388262,0.09164 -0.202572,0.09164 -0.388263,0.233922 v 2.011247 h -0.453374 v -2.693721 h 0.453374 v 0.299035 q 0.212218,-0.176045 0.438906,-0.274919 0.226687,-0.09887 0.465432,-0.09887 0.436494,0 0.665593,0.262861 0.229099,0.262861 0.229099,0.757232 z"
         style="font-style:normal;font-variant:normal;font-weight:normal;font-stretch:normal;font-size:4.93889px;font-family:sans-serif;-inkscape-font-specification:'sans-serif, Normal';font-variant-ligatures:normal;font-variant-caps:normal;font-variant-numeric:normal;font-variant-east-asian:normal;stroke-width:0.264583"
         id="path1261" />
    </g>
    <g
       aria-label="Sync"
       id="text86"
       style="font-style:normal;font-variant:normal;font-weight:normal;font-stretch:normal;font-size:4.93889px;line-height:1.25;font-family:sans-serif;-inkscape-font-specification:'sans-serif, Normal';font-variant-ligatures:normal;font-variant-caps:normal;font-variant-numeric:normal;font-variant-east-asian:normal;fill:#000000;fill-opacity:1;stroke:none;stroke-width:0.264583">
      <path
         d="m 39.524399,41.311311 q 0,0.209807 -0.09887,0.41479 -0.09646,0.204983 -0.272507,0.347266 -0.192926,0.15434 -0.450963,0.241156 -0.255626,0.08682 -0.617362,0.08682 -0.388262,0 -0.699354,-0.07235 -0.308681,-0.07235 -0.629419,-0.21463 v -0.598068 h 0.03376 q 0.272507,0.226687 0.629419,0.349677 0.356912,0.12299 0.670416,0.12299 0.443728,0 0.689708,-0.166398 0.248391,-0.166399 0.248391,-0.443729 0,-0.238745 -0.118167,-0.352089 -0.115755,-0.113343 -0.3545,-0.176044 -0.180867,-0.04823 -0.393085,-0.07958 -0.209807,-0.03135 -0.44614,-0.07958 -0.477491,-0.101285 -0.709001,-0.344854 -0.229099,-0.24598 -0.229099,-0.639065 0,-0.450963 0.381028,-0.73794 0.381027,-0.289388 0.967038,-0.289388 0.378616,0 0.694531,0.07235 0.315916,0.07235 0.559484,0.178456 v 0.564307 h -0.03376 q -0.204983,-0.173633 -0.540191,-0.286976 -0.332796,-0.115756 -0.682473,-0.115756 -0.38344,0 -0.617362,0.159164 -0.23151,0.159163 -0.23151,0.409966 0,0.224276 0.115755,0.352089 0.115755,0.127813 0.407555,0.195337 0.15434,0.03376 0.438905,0.08199 0.284565,0.04823 0.482314,0.09887 0.40032,0.106109 0.602891,0.320738 0.202572,0.21463 0.202572,0.60048 z"
         style="font-style:normal;font-variant:normal;font-weight:normal;font-stretch:normal;font-size:4.93889px;font-family:sans-serif;-inkscape-font-specification:'sans-serif, Normal';font-variant-ligatures:normal;font-variant-caps:normal;font-variant-numeric:normal;font-variant-east-asian:normal;stroke-width:0.264583"
         id="path1264" />
      <path
         d="m 42.584678,39.642507 -1.572342,3.687286 h -0.484725 l 0.501606,-1.12379 -1.073147,-2.563496 h 0.491959 l 0.827168,1.996777 0.834402,-1.996777 z"
         style="font-style:normal;font-variant:normal;font-weight:normal;font-stretch:normal;font-size:4.93889px;font-family:sans-serif;-inkscape-font-specification:'sans-serif, Normal';font-variant-ligatures:normal;font-variant-caps:normal;font-variant-numeric:normal;font-variant-east-asian:normal;stroke-width:0.264583"
         id="path1266" />
      <path
         d="m 45.430328,42.336227 h -0.453375 v -1.533756 q 0,-0.185691 -0.0217,-0.347266 -0.0217,-0.163987 -0.07958,-0.255626 -0.06029,-0.101286 -0.173633,-0.149517 -0.113343,-0.05064 -0.294211,-0.05064 -0.18569,0 -0.388262,0.09164 -0.202572,0.09164 -0.388263,0.233922 v 2.011247 h -0.453374 v -2.69372 h 0.453374 v 0.299034 q 0.212218,-0.176044 0.438906,-0.274919 0.226687,-0.09887 0.465432,-0.09887 0.436494,0 0.665593,0.262861 0.229099,0.262861 0.229099,0.757232 z"
         style="font-style:normal;font-variant:normal;font-weight:normal;font-stretch:normal;font-size:4.93889px;font-family:sans-serif;-inkscape-font-specification:'sans-serif, Normal';font-variant-ligatures:normal;font-variant-caps:normal;font-variant-numeric:normal;font-variant-east-asian:normal;stroke-width:0.264583"
         id="path1268" />
      <path
         d="m 48.295269,42.167418 q -0.226687,0.10852 -0.43167,0.168809 -0.202572,0.06029 -0.431671,0.06029 -0.291799,0 -0.535368,-0.08441 -0.243568,-0.08682 -0.417201,-0.26045 -0.176044,-0.173632 -0.272507,-0.438905 -0.09646,-0.265272 -0.09646,-0.619773 0,-0.660769 0.361736,-1.036974 0.364146,-0.376204 0.959803,-0.376204 0.231511,0 0.453375,0.06511 0.224276,0.06511 0.409966,0.159164 v 0.504017 h -0.02411 q -0.207395,-0.161575 -0.429259,-0.248391 -0.219453,-0.08682 -0.429259,-0.08682 -0.385851,0 -0.610127,0.26045 -0.221864,0.258037 -0.221864,0.759643 0,0.487137 0.217041,0.749998 0.219453,0.260449 0.61495,0.260449 0.137459,0 0.279742,-0.03617 0.142282,-0.03617 0.255626,-0.09405 0.09887,-0.05064 0.18569,-0.106108 0.08682,-0.05788 0.13746,-0.09887 h 0.02411 z"
         style="font-style:normal;font-variant:normal;font-weight:normal;font-stretch:normal;font-size:4.93889px;font-family:sans-serif;-inkscape-font-specification:'sans-serif, Normal';font-variant-ligatures:normal;font-variant-caps:normal;font-variant-numeric:normal;font-variant-east-asian:normal;stroke-width:0.264583"
         id="path1270" />
    </g>
    <g
       aria-label="Threshold"
       id="text90"
       style="font-style:normal;font-variant:normal;font-weight:normal;font-stretch:normal;font-size:4.93889px;line-height:1.25;font-family:sans-serif;-inkscape-font-specification:'sans-serif, Normal';font-variant-ligatures:normal;font-variant-caps:normal;font-variant-numeric:normal;font-variant-east-asian:normal;fill:#000000;fill-opacity:1;stroke:none;stroke-width:0.264583">
      <path
         d="m 27.837923,58.566923 h -1.282954 v 3.166388 h -0.47749 v -3.166388 h -1.282954 v -0.424436 h 3.043398 z"
         style="font-style:normal;font-variant:normal;font-weight:normal;font-stretch:normal;font-size:4.93889px;font-family:sans-serif;-inkscape-font-specification:'sans-serif, Normal';font-variant-ligatures:normal;font-variant-caps:normal;font-variant-numeric:normal;font-variant-east-asian:normal;stroke-width:0.264583"
         id="path1273" />
      <path
         d="m 30.54129,61.733311 h -0.453375 v -1.533757 q 0,-0.185691 -0.0217,-0.347266 -0.0217,-0.163986 -0.07958,-0.255626 -0.06029,-0.101286 -0.173633,-0.149517 -0.113344,-0.05064 -0.294211,-0.05064 -0.185691,0 -0.388263,0.09164 -0.202571,0.09164 -0.388262,0.233923 v 2.011247 h -0.453375 v -3.752399 h 0.453375 v 1.357712 q 0.212218,-0.176044 0.438905,-0.274918 0.226687,-0.09888 0.465433,-0.09888 0.436493,0 0.665592,0.262861 0.229099,0.262861 0.229099,0.757232 z"
         style="font-style:normal;font-variant:normal;font-weight:normal;font-stretch:normal;font-size:4.93889px;font-family:sans-serif;-inkscape-font-specification:'sans-serif, Normal';font-variant-ligatures:normal;font-variant-caps:normal;font-variant-numeric:normal;font-variant-east-asian:normal;stroke-width:0.264583"
         id="path1275" />
      <path
         d="m 33.09514,59.533961 h -0.02412 q -0.101285,-0.02411 -0.197748,-0.03376 -0.09405,-0.01206 -0.224276,-0.01206 -0.209806,0 -0.405143,0.09405 -0.195337,0.09164 -0.376205,0.238745 v 1.912373 H 31.414278 V 59.03959 h 0.453374 v 0.397909 q 0.270096,-0.217042 0.475079,-0.306269 0.207395,-0.09164 0.422024,-0.09164 0.118167,0 0.171222,0.0072 0.05305,0.0048 0.159163,0.0217 z"
         style="font-style:normal;font-variant:normal;font-weight:normal;font-stretch:normal;font-size:4.93889px;font-family:sans-serif;-inkscape-font-specification:'sans-serif, Normal';font-variant-ligatures:normal;font-variant-caps:normal;font-variant-numeric:normal;font-variant-east-asian:normal;stroke-width:0.264583"
         id="path1277" />
      <path
         d="m 35.781626,60.433476 h -1.98472 q 0,0.248391 0.07476,0.434082 0.07476,0.183279 0.204984,0.301446 0.125401,0.115755 0.296622,0.173633 0.173633,0.05788 0.381028,0.05788 0.274919,0 0.552249,-0.10852 0.279742,-0.110932 0.397909,-0.217041 h 0.02412 v 0.494371 q -0.229099,0.09646 -0.467844,0.161575 -0.238745,0.06511 -0.501606,0.06511 -0.670415,0 -1.04662,-0.361735 -0.376205,-0.364146 -0.376205,-1.03215 0,-0.66077 0.359324,-1.049032 0.361735,-0.388263 0.950158,-0.388263 0.545014,0 0.839225,0.318327 0.296623,0.318327 0.296623,0.904338 z M 35.340309,60.08621 q -0.0024,-0.356912 -0.180868,-0.552249 -0.176044,-0.195337 -0.537779,-0.195337 -0.364147,0 -0.581188,0.21463 -0.214629,0.214629 -0.243568,0.532956 z"
         style="font-style:normal;font-variant:normal;font-weight:normal;font-stretch:normal;font-size:4.93889px;font-family:sans-serif;-inkscape-font-specification:'sans-serif, Normal';font-variant-ligatures:normal;font-variant-caps:normal;font-variant-numeric:normal;font-variant-east-asian:normal;stroke-width:0.264583"
         id="path1279" />
      <path
         d="m 38.393354,60.956786 q 0,0.36897 -0.306269,0.605303 -0.303858,0.236334 -0.831991,0.236334 -0.299034,0 -0.549837,-0.06994 -0.248392,-0.07235 -0.417201,-0.156752 v -0.508841 h 0.02412 q 0.21463,0.161575 0.477491,0.258038 0.262861,0.09405 0.504017,0.09405 0.299035,0 0.467844,-0.09646 0.16881,-0.09646 0.16881,-0.303857 0,-0.159164 -0.09164,-0.241157 -0.09164,-0.08199 -0.352089,-0.139871 -0.09646,-0.0217 -0.253215,-0.05064 -0.15434,-0.02894 -0.282153,-0.0627 -0.354501,-0.09405 -0.504018,-0.274918 -0.147105,-0.183279 -0.147105,-0.448552 0,-0.166398 0.06752,-0.313504 0.06994,-0.147105 0.209807,-0.262861 0.135048,-0.113343 0.342442,-0.178455 0.209807,-0.06752 0.467844,-0.06752 0.241157,0 0.487137,0.06029 0.248391,0.05788 0.412378,0.142282 v 0.484725 h -0.02412 q -0.173632,-0.127813 -0.422024,-0.214629 -0.248391,-0.08923 -0.487137,-0.08923 -0.248391,0 -0.419612,0.09646 -0.171222,0.09405 -0.171222,0.282153 0,0.166398 0.103698,0.250803 0.101286,0.08441 0.327973,0.137459 0.125402,0.02894 0.279742,0.05788 0.156752,0.02894 0.260449,0.05305 0.315915,0.07235 0.487137,0.248392 0.171221,0.178456 0.171221,0.472667 z"
         style="font-style:normal;font-variant:normal;font-weight:normal;font-stretch:normal;font-size:4.93889px;font-family:sans-serif;-inkscape-font-specification:'sans-serif, Normal';font-variant-ligatures:normal;font-variant-caps:normal;font-variant-numeric:normal;font-variant-east-asian:normal;stroke-width:0.264583"
         id="path1281" />
      <path
         d="m 41.296881,61.733311 h -0.453375 v -1.533757 q 0,-0.185691 -0.0217,-0.347266 -0.0217,-0.163986 -0.07958,-0.255626 -0.06029,-0.101286 -0.173633,-0.149517 -0.113344,-0.05064 -0.294212,-0.05064 -0.18569,0 -0.388262,0.09164 -0.202572,0.09164 -0.388262,0.233923 v 2.011247 h -0.453375 v -3.752399 h 0.453375 v 1.357712 q 0.212218,-0.176044 0.438905,-0.274918 0.226687,-0.09888 0.465433,-0.09888 0.436493,0 0.665592,0.262861 0.229099,0.262861 0.229099,0.757232 z"
         style="font-style:normal;font-variant:normal;font-weight:normal;font-stretch:normal;font-size:4.93889px;font-family:sans-serif;-inkscape-font-specification:'sans-serif, Normal';font-variant-ligatures:normal;font-variant-caps:normal;font-variant-numeric:normal;font-variant-east-asian:normal;stroke-width:0.264583"
         id="path1283" />
      <path
         d="m 44.46568,60.387656 q 0,0.658358 -0.337619,1.039386 -0.33762,0.381027 -0.904338,0.381027 -0.571541,0 -0.909161,-0.381027 -0.335208,-0.381028 -0.335208,-1.039386 0,-0.658358 0.335208,-1.039385 0.33762,-0.38344 0.909161,-0.38344 0.566718,0 0.904338,0.38344 0.337619,0.381027 0.337619,1.039385 z m -0.467844,0 q 0,-0.52331 -0.204983,-0.776525 -0.204983,-0.255626 -0.56913,-0.255626 -0.36897,0 -0.573953,0.255626 -0.202572,0.253215 -0.202572,0.776525 0,0.506429 0.204984,0.76929 0.204983,0.260449 0.571541,0.260449 0.361735,0 0.566718,-0.258037 0.207395,-0.26045 0.207395,-0.771702 z"
         style="font-style:normal;font-variant:normal;font-weight:normal;font-stretch:normal;font-size:4.93889px;font-family:sans-serif;-inkscape-font-specification:'sans-serif, Normal';font-variant-ligatures:normal;font-variant-caps:normal;font-variant-numeric:normal;font-variant-east-asian:normal;stroke-width:0.264583"
         id="path1285" />
      <path
         d="M 45.628055,61.733311 H 45.17468 v -3.752399 h 0.453375 z"
         style="font-style:normal;font-variant:normal;font-weight:normal;font-stretch:normal;font-size:4.93889px;font-family:sans-serif;-inkscape-font-specification:'sans-serif, Normal';font-variant-ligatures:normal;font-variant-caps:normal;font-variant-numeric:normal;font-variant-east-asian:normal;stroke-width:0.264583"
         id="path1287" />
      <path
         d="m 48.714861,61.733311 h -0.453374 v -0.282154 q -0.195337,0.16881 -0.407555,0.262861 -0.212218,0.09405 -0.46061,0.09405 -0.482313,0 -0.766878,-0.371381 -0.282153,-0.371381 -0.282153,-1.029739 0,-0.342443 0.09646,-0.610127 0.09887,-0.267684 0.265273,-0.455786 0.163986,-0.183279 0.381027,-0.279742 0.219453,-0.09646 0.453375,-0.09646 0.212218,0 0.376205,0.04582 0.163986,0.04341 0.344854,0.137459 v -1.167198 h 0.453374 z M 48.261487,61.07013 v -1.545815 q -0.183279,-0.08199 -0.327974,-0.113344 -0.144694,-0.03135 -0.315915,-0.03135 -0.381027,0 -0.593245,0.265272 -0.212218,0.265273 -0.212218,0.752409 0,0.479902 0.163986,0.730705 0.163987,0.248392 0.525722,0.248392 0.192925,0 0.390674,-0.0844 0.197748,-0.08682 0.36897,-0.221864 z"
         style="font-style:normal;font-variant:normal;font-weight:normal;font-stretch:normal;font-size:4.93889px;font-family:sans-serif;-inkscape-font-specification:'sans-serif, Normal';font-variant-ligatures:normal;font-variant-caps:normal;font-variant-numeric:normal;font-variant-east-asian:normal;stroke-width:0.264583"
         id="path1289" />
    </g>
    <g
       aria-label="Main Clk"
       id="text94"
       style="font-style:normal;font-variant:normal;font-weight:normal;font-stretch:normal;font-size:4.93889px;line-height:1.25;font-family:sans-serif;-inkscape-font-specification:'sans-serif, Normal';font-variant-ligatures:normal;font-variant-caps:normal;font-variant-numeric:normal;font-variant-east-asian:normal;fill:#000000;fill-opacity:1;stroke:none;stroke-width:0.264583">
      <path
         d="M 5.7040963,89.226555 H 5.226606 V 86.132514 L 4.2282171,88.237812 H 3.9436521 L 2.952498,86.132514 v 3.094041 h -0.44614 v -3.590824 h 0.6511232 l 0.9573922,1.999189 0.9260419,-1.999189 h 0.663181 z"
         style="font-style:normal;font-variant:normal;font-weight:normal;font-stretch:normal;font-size:4.93889px;font-family:sans-serif;-inkscape-font-specification:'sans-serif, Normal';font-variant-ligatures:normal;font-variant-caps:normal;font-variant-numeric:normal;font-variant-east-asian:normal;stroke-width:0.264583"
         id="path1292" />
      <path
         d="M 8.7306136,89.226555 H 8.2796505 v -0.286977 q -0.060289,0.041 -0.1639866,0.115756 -0.1012858,0.07235 -0.1977485,0.115755 -0.1133437,0.05547 -0.2604493,0.09164 -0.1471056,0.03858 -0.3448541,0.03858 -0.3641467,0 -0.6173613,-0.241156 -0.2532145,-0.241157 -0.2532145,-0.61495 0,-0.306269 0.1302246,-0.494371 0.1326362,-0.190514 0.3762045,-0.299035 0.2459799,-0.10852 0.590834,-0.147105 0.3448542,-0.03858 0.7403512,-0.05788 v -0.06993 q 0,-0.154341 -0.055466,-0.255626 -0.053055,-0.101286 -0.1543404,-0.159164 -0.096463,-0.05547 -0.2315104,-0.07476 -0.1350478,-0.01929 -0.2821534,-0.01929 -0.178456,0 -0.3979086,0.04823 -0.2194527,0.04582 -0.4533747,0.135048 h -0.024116 v -0.460609 q 0.1326362,-0.03617 0.3834392,-0.07958 0.2508031,-0.04341 0.4943714,-0.04341 0.2845649,0 0.4943713,0.04823 0.2122179,0.04582 0.3665582,0.159164 0.1519288,0.110932 0.2315105,0.286976 0.079582,0.176045 0.079582,0.436494 z M 8.2796505,88.563374 v -0.749998 q -0.2073948,0.01206 -0.4895482,0.03617 -0.2797418,0.02412 -0.4437284,0.06994 -0.1953369,0.05547 -0.3159153,0.173633 -0.1205784,0.115755 -0.1205784,0.320739 0,0.23151 0.1398709,0.349677 0.139871,0.115755 0.4268475,0.115755 0.2387451,0 0.4364937,-0.09164 0.1977485,-0.09405 0.3665582,-0.224276 z"
         style="font-style:normal;font-variant:normal;font-weight:normal;font-stretch:normal;font-size:4.93889px;font-family:sans-serif;-inkscape-font-specification:'sans-serif, Normal';font-variant-ligatures:normal;font-variant-caps:normal;font-variant-numeric:normal;font-variant-east-asian:normal;stroke-width:0.264583"
         id="path1294" />
      <path
         d="M 10.095561,86.081871 H 9.5843087 v -0.470256 h 0.5112523 z m -0.02894,3.144684 H 9.6132475 v -2.693721 h 0.4533745 z"
         style="font-style:normal;font-variant:normal;font-weight:normal;font-stretch:normal;font-size:4.93889px;font-family:sans-serif;-inkscape-font-specification:'sans-serif, Normal';font-variant-ligatures:normal;font-variant-caps:normal;font-variant-numeric:normal;font-variant-east-asian:normal;stroke-width:0.264583"
         id="path1296" />
      <path
         d="m 13.220952,89.226555 h -0.453375 v -1.533757 q 0,-0.185691 -0.0217,-0.347266 -0.0217,-0.163986 -0.07958,-0.255626 -0.06029,-0.101286 -0.173632,-0.149517 -0.113344,-0.05064 -0.294212,-0.05064 -0.18569,0 -0.388262,0.09164 -0.202572,0.09164 -0.388262,0.233922 v 2.011247 h -0.453375 v -2.693721 h 0.453375 v 0.299034 q 0.212218,-0.176044 0.438905,-0.274918 0.226687,-0.09887 0.465432,-0.09887 0.436494,0 0.665593,0.26286 0.229099,0.262861 0.229099,0.757233 z"
         style="font-style:normal;font-variant:normal;font-weight:normal;font-stretch:normal;font-size:4.93889px;font-family:sans-serif;-inkscape-font-specification:'sans-serif, Normal';font-variant-ligatures:normal;font-variant-caps:normal;font-variant-numeric:normal;font-variant-east-asian:normal;stroke-width:0.264583"
         id="path1298" />
      <path
         d="m 18.639744,88.966106 q -0.132636,0.05788 -0.241157,0.10852 -0.106109,0.05064 -0.279742,0.106109 -0.147105,0.04582 -0.320738,0.07717 -0.171221,0.03376 -0.378616,0.03376 -0.390674,0 -0.711412,-0.10852 -0.318327,-0.110932 -0.554661,-0.344854 -0.23151,-0.229099 -0.361735,-0.581188 -0.130225,-0.354501 -0.130225,-0.822345 0,-0.443728 0.125402,-0.793405 0.125401,-0.349678 0.361735,-0.590834 0.229099,-0.233922 0.552249,-0.356912 0.325561,-0.12299 0.721059,-0.12299 0.289388,0 0.576364,0.06994 0.289388,0.06994 0.641477,0.24598 v 0.566718 h -0.03617 q -0.296623,-0.248391 -0.588423,-0.361735 -0.2918,-0.113343 -0.624596,-0.113343 -0.272507,0 -0.49196,0.08923 -0.217041,0.08682 -0.388262,0.272507 -0.166398,0.180867 -0.260449,0.458198 -0.09164,0.274918 -0.09164,0.636653 0,0.378616 0.101286,0.651124 0.103697,0.272507 0.265272,0.443728 0.16881,0.178456 0.393086,0.265272 0.226687,0.08441 0.47749,0.08441 0.344854,0 0.6463,-0.118167 0.301446,-0.118166 0.564307,-0.3545 h 0.03376 z"
         style="font-style:normal;font-variant:normal;font-weight:normal;font-stretch:normal;font-size:4.93889px;font-family:sans-serif;-inkscape-font-specification:'sans-serif, Normal';font-variant-ligatures:normal;font-variant-caps:normal;font-variant-numeric:normal;font-variant-east-asian:normal;stroke-width:0.264583"
         id="path1300" />
      <path
         d="M 19.74183,89.226555 H 19.288456 V 85.474156 H 19.74183 Z"
         style="font-style:normal;font-variant:normal;font-weight:normal;font-stretch:normal;font-size:4.93889px;font-family:sans-serif;-inkscape-font-specification:'sans-serif, Normal';font-variant-ligatures:normal;font-variant-caps:normal;font-variant-numeric:normal;font-variant-east-asian:normal;stroke-width:0.264583"
         id="path1302" />
      <path
         d="m 23.089086,89.226555 h -0.598068 l -1.080383,-1.179257 -0.294211,0.279742 v 0.899515 H 20.66305 v -3.752399 h 0.453374 V 87.8809 l 1.309481,-1.348066 h 0.571542 l -1.251604,1.244369 z"
         style="font-style:normal;font-variant:normal;font-weight:normal;font-stretch:normal;font-size:4.93889px;font-family:sans-serif;-inkscape-font-specification:'sans-serif, Normal';font-variant-ligatures:normal;font-variant-caps:normal;font-variant-numeric:normal;font-variant-east-asian:normal;stroke-width:0.264583"
         id="path1304" />
    </g>
    <g
       aria-label="Ext Clk"
       id="text98"
       style="font-style:normal;font-variant:normal;font-weight:normal;font-stretch:normal;font-size:4.93889px;line-height:1.25;font-family:sans-serif;-inkscape-font-specification:'sans-serif, Normal';font-variant-ligatures:normal;font-variant-caps:normal;font-variant-numeric:normal;font-variant-east-asian:normal;fill:#ffffff;fill-opacity:1;stroke:none;stroke-width:0.265;stroke-miterlimit:4;stroke-dasharray:none">
      <path
         d="m 32.702694,107.27426 h -2.365747 v -3.59082 h 2.365747 v 0.42443 h -1.888257 v 0.98392 h 1.888257 v 0.42444 h -1.888257 v 1.3336 h 1.888257 z"
         style="font-style:normal;font-variant:normal;font-weight:normal;font-stretch:normal;font-size:4.93889px;font-family:sans-serif;-inkscape-font-specification:'sans-serif, Normal';font-variant-ligatures:normal;font-variant-caps:normal;font-variant-numeric:normal;font-variant-east-asian:normal;fill:#ffffff;fill-opacity:1;stroke-width:0.265;stroke-miterlimit:4;stroke-dasharray:none"
         id="path1322" />
      <path
         d="m 35.75815,107.27426 h -0.571541 l -0.764467,-1.03456 -0.76929,1.03456 h -0.528133 l 1.051443,-1.34324 -1.041797,-1.35048 h 0.571541 l 0.759644,1.01768 0.762055,-1.01768 h 0.530545 l -1.058678,1.32636 z"
         style="font-style:normal;font-variant:normal;font-weight:normal;font-stretch:normal;font-size:4.93889px;font-family:sans-serif;-inkscape-font-specification:'sans-serif, Normal';font-variant-ligatures:normal;font-variant-caps:normal;font-variant-numeric:normal;font-variant-east-asian:normal;fill:#ffffff;fill-opacity:1;stroke-width:0.265;stroke-miterlimit:4;stroke-dasharray:none"
         id="path1324" />
      <path
         d="m 37.747693,107.25015 q -0.127813,0.0338 -0.279741,0.0555 -0.149518,0.0217 -0.267684,0.0217 -0.412378,0 -0.627008,-0.22187 -0.214629,-0.22186 -0.214629,-0.71141 v -1.43247 h -0.306269 v -0.38103 h 0.306269 v -0.77411 h 0.453374 v 0.77411 h 0.935688 v 0.38103 h -0.935688 v 1.22749 q 0,0.21221 0.0096,0.33279 0.0096,0.11817 0.06752,0.22187 0.05306,0.0965 0.144695,0.14228 0.09405,0.0434 0.284564,0.0434 0.110933,0 0.231511,-0.0314 0.120578,-0.0338 0.173633,-0.0555 h 0.02411 z"
         style="font-style:normal;font-variant:normal;font-weight:normal;font-stretch:normal;font-size:4.93889px;font-family:sans-serif;-inkscape-font-specification:'sans-serif, Normal';font-variant-ligatures:normal;font-variant-caps:normal;font-variant-numeric:normal;font-variant-east-asian:normal;fill:#ffffff;fill-opacity:1;stroke-width:0.265;stroke-miterlimit:4;stroke-dasharray:none"
         id="path1326" />
      <path
         d="m 42.843335,107.01381 q -0.132636,0.0579 -0.241157,0.10852 -0.106109,0.0506 -0.279742,0.10611 -0.147105,0.0458 -0.320738,0.0772 -0.171221,0.0338 -0.378616,0.0338 -0.390674,0 -0.711413,-0.10852 -0.318326,-0.11093 -0.55466,-0.34485 -0.231511,-0.2291 -0.361735,-0.58119 -0.130225,-0.3545 -0.130225,-0.82234 0,-0.44373 0.125402,-0.79341 0.125401,-0.34968 0.361735,-0.59083 0.229099,-0.23392 0.552249,-0.35691 0.325561,-0.12299 0.721058,-0.12299 0.289388,0 0.576365,0.0699 0.289388,0.0699 0.641477,0.24598 v 0.56672 h -0.03617 q -0.296622,-0.24839 -0.588422,-0.36174 -0.2918,-0.11334 -0.624596,-0.11334 -0.272507,0 -0.49196,0.0892 -0.217041,0.0868 -0.388262,0.27251 -0.166398,0.18086 -0.260449,0.45819 -0.09164,0.27492 -0.09164,0.63666 0,0.37861 0.101286,0.65112 0.103697,0.27251 0.265272,0.44373 0.16881,0.17845 0.393086,0.26527 0.226687,0.0844 0.47749,0.0844 0.344854,0 0.6463,-0.11817 0.301446,-0.11817 0.564307,-0.3545 h 0.03376 z"
         style="font-style:normal;font-variant:normal;font-weight:normal;font-stretch:normal;font-size:4.93889px;font-family:sans-serif;-inkscape-font-specification:'sans-serif, Normal';font-variant-ligatures:normal;font-variant-caps:normal;font-variant-numeric:normal;font-variant-east-asian:normal;fill:#ffffff;fill-opacity:1;stroke-width:0.265;stroke-miterlimit:4;stroke-dasharray:none"
         id="path1328" />
      <path
         d="m 43.945421,107.27426 h -0.453375 v -3.7524 h 0.453375 z"
         style="font-style:normal;font-variant:normal;font-weight:normal;font-stretch:normal;font-size:4.93889px;font-family:sans-serif;-inkscape-font-specification:'sans-serif, Normal';font-variant-ligatures:normal;font-variant-caps:normal;font-variant-numeric:normal;font-variant-east-asian:normal;fill:#ffffff;fill-opacity:1;stroke-width:0.265;stroke-miterlimit:4;stroke-dasharray:none"
         id="path1330" />
      <path
         d="m 47.292676,107.27426 h -0.598068 l -1.080383,-1.17925 -0.294211,0.27974 v 0.89951 h -0.453375 v -3.7524 h 0.453375 v 2.40675 l 1.309481,-1.34807 h 0.571542 l -1.251604,1.24437 z"
         style="font-style:normal;font-variant:normal;font-weight:normal;font-stretch:normal;font-size:4.93889px;font-family:sans-serif;-inkscape-font-specification:'sans-serif, Normal';font-variant-ligatures:normal;font-variant-caps:normal;font-variant-numeric:normal;font-variant-east-asian:normal;fill:#ffffff;fill-opacity:1;stroke-width:0.265;stroke-miterlimit:4;stroke-dasharray:none"
         id="path1332" />
    </g>
  </g>
  <g
     style="display:none"
     inkscape:label="components"
     id="layer2"
     inkscape:groupmode="layer">
    <circle
       style="display:inline;opacity:1;vector-effect:none;fill:#ff0000;fill-opacity:1;fill-rule:evenodd;stroke:none;stroke-width:1;stroke-linecap:butt;stroke-linejoin:miter;stroke-miterlimit:4;stroke-dasharray:none;stroke-dashoffset:0;stroke-opacity:1;paint-order:normal"
       id="path4954"
       cx="29.969824"
       cy="23.178633"
       r="4"
       inkscape:label="runToggle" />
    <circle
       style="display:inline;opacity:1;vector-effect:none;fill:#ff0000;fill-opacity:1;fill-rule:evenodd;stroke:none;stroke-width:1;stroke-linecap:butt;stroke-linejoin:miter;stroke-miterlimit:4;stroke-dasharray:none;stroke-dashoffset:0;stroke-opacity:1;paint-order:normal"
       id="path4954-6"
       cx="29.52692"
       cy="40.451881"
       r="4"
       inkscape:label="syncToggle" />
    <circle
       style="display:inline;opacity:1;vector-effect:none;fill:#ff0000;fill-opacity:1;fill-rule:evenodd;stroke:none;stroke-width:1;stroke-linecap:butt;stroke-linejoin:miter;stroke-miterlimit:4;stroke-dasharray:none;stroke-dashoffset:0;stroke-opacity:1;paint-order:normal"
       id="path4954-4"
       cx="18.454325"
       cy="59.349106"
       r="4"
       inkscape:label="threshKnob" />
    <circle
       inkscape:label="syncLed"
       r="4"
       cy="76.769989"
       cx="24.359709"
       id="circle66"
       style="display:inline;opacity:1;vector-effect:none;fill:#ff00ff;fill-opacity:1;fill-rule:evenodd;stroke:none;stroke-width:1;stroke-linecap:butt;stroke-linejoin:miter;stroke-miterlimit:4;stroke-dasharray:none;stroke-dashoffset:0;stroke-opacity:1;paint-order:normal" />
    <circle
       r="4"
       cy="22.883362"
       cx="11.663133"
       id="circle4956"
       style="display:inline;opacity:1;vector-effect:none;fill:#00ff00;fill-opacity:1;fill-rule:evenodd;stroke:none;stroke-width:1;stroke-linecap:butt;stroke-linejoin:miter;stroke-miterlimit:4;stroke-dasharray:none;stroke-dashoffset:0;stroke-opacity:1;paint-order:normal"
       inkscape:label="runCv" />
    <circle
       r="4"
       cy="40.304245"
       cx="11.515499"
       id="circle4956-3"
       style="display:inline;opacity:1;vector-effect:none;fill:#00ff00;fill-opacity:1;fill-rule:evenodd;stroke:none;stroke-width:1;stroke-linecap:butt;stroke-linejoin:miter;stroke-miterlimit:4;stroke-dasharray:none;stroke-dashoffset:0;stroke-opacity:1;paint-order:normal"
       inkscape:label="syncCv" />
    <circle
       r="4"
       cy="96.526413"
       cx="10.629691"
       id="circle4956-8"
       style="display:inline;opacity:1;vector-effect:none;fill:#00ff00;fill-opacity:1;fill-rule:evenodd;stroke:none;stroke-width:1;stroke-linecap:butt;stroke-linejoin:miter;stroke-miterlimit:4;stroke-dasharray:none;stroke-dashoffset:0;stroke-opacity:1;paint-order:normal"
       inkscape:label="mainClkIn" />
    <circle
       r="4"
       cy="115.57129"
       cx="10.777326"
       id="circle4956-4"
       style="display:inline;opacity:1;vector-effect:none;fill:#00ff00;fill-opacity:1;fill-rule:evenodd;stroke:none;stroke-width:1;stroke-linecap:butt;stroke-linejoin:miter;stroke-miterlimit:4;stroke-dasharray:none;stroke-dashoffset:0;stroke-opacity:1;paint-order:normal"
       inkscape:label="extClkIn" />
    <circle
       style="display:inline;opacity:1;vector-effect:none;fill:#0000ff;fill-opacity:1;fill-rule:evenodd;stroke:none;stroke-width:1;stroke-linecap:butt;stroke-linejoin:miter;stroke-miterlimit:4;stroke-dasharray:none;stroke-dashoffset:0;stroke-opacity:1;paint-order:normal"
       id="circle4958"
       cx="38.8279"
       cy="114.98074"
       r="4"
       inkscape:label="extClkOut" />
    <circle
       inkscape:label="threshCv"
       style="display:inline;opacity:1;vector-effect:none;fill:#00ff00;fill-opacity:1;fill-rule:evenodd;stroke:none;stroke-width:1;stroke-linecap:butt;stroke-linejoin:miter;stroke-miterlimit:4;stroke-dasharray:none;stroke-dashoffset:0;stroke-opacity:1;paint-order:normal"
       id="circle515"
       cx="6.7911921"
       cy="59.496742"
       r="4" />
  </g>
</svg>
